<?xml version="1.0" encoding="UTF-8" standalone="no"?><!-- Generator: Gravit.io --><svg xmlns="http://www.w3.org/2000/svg" xmlns:xlink="http://www.w3.org/1999/xlink" style="isolation:isolate" viewBox="791.248 442 386.626 114.333" width="386.626pt" height="114.333pt"><g><g><g><g><path d=" M 954.151 477.963 L 954.151 477.963 Q 954.94 477.963 955.433 478.489 L 955.433 478.489 L 955.433 478.489 Q 955.926 479.014 955.926 479.803 L 955.926 479.803 L 955.926 498.964 L 955.926 498.964 Q 955.926 499.819 955.351 500.394 L 955.351 500.394 L 955.351 500.394 Q 954.775 500.969 953.921 500.969 L 953.921 500.969 L 953.921 500.969 Q 953.461 500.969 953.017 500.821 L 953.017 500.821 L 953.017 500.821 Q 952.573 500.674 952.376 500.411 L 952.376 500.411 L 940.314 485.095 L 940.314 499.129 L 940.314 499.129 Q 940.314 499.918 939.805 500.443 L 939.805 500.443 L 939.805 500.443 Q 939.295 500.969 938.474 500.969 L 938.474 500.969 L 938.474 500.969 Q 937.685 500.969 937.192 500.443 L 937.192 500.443 L 937.192 500.443 Q 936.699 499.918 936.699 499.129 L 936.699 499.129 L 936.699 479.968 L 936.699 479.968 Q 936.699 479.113 937.274 478.538 L 937.274 478.538 L 937.274 478.538 Q 937.849 477.963 938.704 477.963 L 938.704 477.963 L 938.704 477.963 Q 939.197 477.963 939.673 478.16 L 939.673 478.16 L 939.673 478.16 Q 940.15 478.357 940.38 478.686 L 940.38 478.686 L 952.343 493.936 L 952.343 479.803 L 952.343 479.803 Q 952.343 479.014 952.853 478.489 L 952.853 478.489 L 952.853 478.489 Q 953.362 477.963 954.151 477.963 L 954.151 477.963 Z  M 1014.889 489.466 L 1014.889 489.466 Q 1014.889 492.72 1013.443 495.431 L 1013.443 495.431 L 1013.443 495.431 Q 1011.996 498.143 1009.449 499.72 L 1009.449 499.72 L 1009.449 499.72 Q 1006.902 501.298 1003.714 501.298 L 1003.714 501.298 L 1003.714 501.298 Q 1000.526 501.298 997.979 499.72 L 997.979 499.72 L 997.979 499.72 Q 995.432 498.143 994.002 495.431 L 994.002 495.431 L 994.002 495.431 Q 992.572 492.72 992.572 489.466 L 992.572 489.466 L 992.572 489.466 Q 992.572 486.212 994.002 483.501 L 994.002 483.501 L 994.002 483.501 Q 995.432 480.789 997.979 479.212 L 997.979 479.212 L 997.979 479.212 Q 1000.526 477.634 1003.714 477.634 L 1003.714 477.634 L 1003.714 477.634 Q 1006.902 477.634 1009.449 479.212 L 1009.449 479.212 L 1009.449 479.212 Q 1011.996 480.789 1013.443 483.501 L 1013.443 483.501 L 1013.443 483.501 Q 1014.889 486.212 1014.889 489.466 L 1014.889 489.466 Z  M 1010.616 489.466 L 1010.616 489.466 Q 1010.616 487.264 1009.729 485.473 L 1009.729 485.473 L 1009.729 485.473 Q 1008.841 483.681 1007.264 482.63 L 1007.264 482.63 L 1007.264 482.63 Q 1005.686 481.578 1003.714 481.578 L 1003.714 481.578 L 1003.714 481.578 Q 1001.709 481.578 1000.148 482.613 L 1000.148 482.613 L 1000.148 482.613 Q 998.587 483.649 997.716 485.456 L 997.716 485.456 L 997.716 485.456 Q 996.845 487.264 996.845 489.466 L 996.845 489.466 L 996.845 489.466 Q 996.845 491.668 997.716 493.476 L 997.716 493.476 L 997.716 493.476 Q 998.587 495.283 1000.148 496.319 L 1000.148 496.319 L 1000.148 496.319 Q 1001.709 497.354 1003.714 497.354 L 1003.714 497.354 L 1003.714 497.354 Q 1005.686 497.354 1007.264 496.302 L 1007.264 496.302 L 1007.264 496.302 Q 1008.841 495.251 1009.729 493.459 L 1009.729 493.459 L 1009.729 493.459 Q 1010.616 491.668 1010.616 489.466 L 1010.616 489.466 Z  M 1067.968 477.897 L 1067.968 477.897 Q 1068.79 477.897 1069.398 478.456 L 1069.398 478.456 L 1069.398 478.456 Q 1070.006 479.014 1070.006 479.803 L 1070.006 479.803 L 1070.006 479.803 Q 1070.006 480.23 1069.809 480.691 L 1069.809 480.691 L 1061.691 499.687 L 1061.691 499.687 Q 1061.395 500.312 1060.869 500.641 L 1060.869 500.641 L 1060.869 500.641 Q 1060.343 500.969 1059.752 500.969 L 1059.752 500.969 L 1059.752 500.969 Q 1059.193 500.936 1058.716 500.624 L 1058.716 500.624 L 1058.716 500.624 Q 1058.24 500.312 1057.977 499.72 L 1057.977 499.72 L 1049.859 480.658 L 1049.859 480.658 Q 1049.695 480.329 1049.695 479.836 L 1049.695 479.836 L 1049.695 479.836 Q 1049.695 478.949 1050.352 478.406 L 1050.352 478.406 L 1050.352 478.406 Q 1051.009 477.864 1051.699 477.864 L 1051.699 477.864 L 1051.699 477.864 Q 1052.258 477.864 1052.751 478.193 L 1052.751 478.193 L 1052.751 478.193 Q 1053.244 478.521 1053.507 479.146 L 1053.507 479.146 L 1060.113 494.692 L 1066.161 479.146 L 1066.161 479.146 Q 1066.424 478.554 1066.917 478.226 L 1066.917 478.226 L 1066.917 478.226 Q 1067.41 477.897 1067.968 477.897 L 1067.968 477.897 Z  M 1122.659 477.93 L 1122.659 477.93 Q 1123.513 477.93 1124.039 478.489 L 1124.039 478.489 L 1124.039 478.489 Q 1124.565 479.047 1124.565 479.935 L 1124.565 479.935 L 1124.565 491.832 L 1124.565 491.832 Q 1124.565 494.56 1123.415 496.664 L 1123.415 496.664 L 1123.415 496.664 Q 1122.264 498.767 1120.194 499.95 L 1120.194 499.95 L 1120.194 499.95 Q 1118.123 501.134 1115.461 501.134 L 1115.461 501.134 L 1115.461 501.134 Q 1112.799 501.134 1110.712 499.95 L 1110.712 499.95 L 1110.712 499.95 Q 1108.625 498.767 1107.474 496.664 L 1107.474 496.664 L 1107.474 496.664 Q 1106.324 494.56 1106.324 491.832 L 1106.324 491.832 L 1106.324 479.935 L 1106.324 479.935 Q 1106.324 479.08 1106.915 478.505 L 1106.915 478.505 L 1106.915 478.505 Q 1107.507 477.93 1108.427 477.93 L 1108.427 477.93 L 1108.427 477.93 Q 1109.216 477.93 1109.808 478.505 L 1109.808 478.505 L 1109.808 478.505 Q 1110.399 479.08 1110.399 479.935 L 1110.399 479.935 L 1110.399 491.832 L 1110.399 491.832 Q 1110.399 493.41 1111.09 494.642 L 1111.09 494.642 L 1111.09 494.642 Q 1111.78 495.875 1112.946 496.532 L 1112.946 496.532 L 1112.946 496.532 Q 1114.113 497.19 1115.461 497.19 L 1115.461 497.19 L 1115.461 497.19 Q 1116.874 497.19 1118.107 496.532 L 1118.107 496.532 L 1118.107 496.532 Q 1119.339 495.875 1120.079 494.642 L 1120.079 494.642 L 1120.079 494.642 Q 1120.818 493.41 1120.818 491.832 L 1120.818 491.832 L 1120.818 479.935 L 1120.818 479.935 Q 1120.818 479.047 1121.311 478.489 L 1121.311 478.489 L 1121.311 478.489 Q 1121.804 477.93 1122.659 477.93 L 1122.659 477.93 Z  M 1169.428 501.298 L 1169.428 501.298 Q 1167.062 501.298 1165.221 500.706 L 1165.221 500.706 L 1165.221 500.706 Q 1163.38 500.115 1161.77 498.702 L 1161.77 498.702 L 1161.77 498.702 Q 1160.883 497.913 1160.883 496.96 L 1160.883 496.96 L 1160.883 496.96 Q 1160.883 496.204 1161.441 495.628 L 1161.441 495.628 L 1161.441 495.628 Q 1162 495.053 1162.789 495.053 L 1162.789 495.053 L 1162.789 495.053 Q 1163.413 495.053 1163.906 495.448 L 1163.906 495.448 L 1163.906 495.448 Q 1165.221 496.532 1166.47 497.025 L 1166.47 497.025 L 1166.47 497.025 Q 1167.719 497.518 1169.428 497.518 L 1169.428 497.518 L 1169.428 497.518 Q 1171.269 497.518 1172.6 496.697 L 1172.6 496.697 L 1172.6 496.697 Q 1173.931 495.875 1173.931 494.659 L 1173.931 494.659 L 1173.931 494.659 Q 1173.931 493.18 1172.616 492.342 L 1172.616 492.342 L 1172.616 492.342 Q 1171.301 491.504 1168.442 491.076 L 1168.442 491.076 L 1168.442 491.076 Q 1161.244 490.025 1161.244 484.372 L 1161.244 484.372 L 1161.244 484.372 Q 1161.244 482.301 1162.329 480.773 L 1162.329 480.773 L 1162.329 480.773 Q 1163.413 479.244 1165.287 478.439 L 1165.287 478.439 L 1165.287 478.439 Q 1167.16 477.634 1169.461 477.634 L 1169.461 477.634 L 1169.461 477.634 Q 1171.531 477.634 1173.356 478.258 L 1173.356 478.258 L 1173.356 478.258 Q 1175.18 478.883 1176.396 479.902 L 1176.396 479.902 L 1176.396 479.902 Q 1177.349 480.658 1177.349 481.644 L 1177.349 481.644 L 1177.349 481.644 Q 1177.349 482.4 1176.79 482.975 L 1176.79 482.975 L 1176.79 482.975 Q 1176.231 483.55 1175.475 483.55 L 1175.475 483.55 L 1175.475 483.55 Q 1174.982 483.55 1174.588 483.254 L 1174.588 483.254 L 1174.588 483.254 Q 1173.733 482.564 1172.205 481.989 L 1172.205 481.989 L 1172.205 481.989 Q 1170.677 481.414 1169.461 481.414 L 1169.461 481.414 L 1169.461 481.414 Q 1167.39 481.414 1166.256 482.186 L 1166.256 482.186 L 1166.256 482.186 Q 1165.122 482.958 1165.122 484.207 L 1165.122 484.207 L 1165.122 484.207 Q 1165.122 485.621 1166.289 486.344 L 1166.289 486.344 L 1166.289 486.344 Q 1167.456 487.067 1169.954 487.527 L 1169.954 487.527 L 1169.954 487.527 Q 1172.78 488.02 1174.473 488.792 L 1174.473 488.792 L 1174.473 488.792 Q 1176.166 489.565 1177.02 490.896 L 1177.02 490.896 L 1177.02 490.896 Q 1177.875 492.227 1177.875 494.429 L 1177.875 494.429 L 1177.875 494.429 Q 1177.875 496.499 1176.708 498.061 L 1176.708 498.061 L 1176.708 498.061 Q 1175.541 499.622 1173.602 500.46 L 1173.602 500.46 L 1173.602 500.46 Q 1171.663 501.298 1169.428 501.298 L 1169.428 501.298 Z " fill="rgb(62,62,62)"/><path d=" M 1104.615 520.35 L 1103.875 520.35 L 1103.875 513.265 L 1102.796 513.265 L 1102.796 512.659 L 1103.875 512.659 L 1103.875 512.407 L 1103.875 512.407 Q 1103.875 510.988 1104.452 510.196 L 1104.452 510.196 L 1104.452 510.196 Q 1105.029 509.405 1106.049 509.405 L 1106.049 509.405 L 1106.049 509.405 Q 1106.493 509.405 1106.907 509.538 L 1106.907 509.538 L 1106.907 509.538 Q 1107.321 509.671 1107.588 509.893 L 1107.588 509.893 L 1107.321 510.426 L 1107.321 510.426 Q 1107.114 510.263 1106.811 510.159 L 1106.811 510.159 L 1106.811 510.159 Q 1106.508 510.056 1106.182 510.056 L 1106.182 510.056 L 1106.182 510.056 Q 1105.428 510.056 1105.022 510.655 L 1105.022 510.655 L 1105.022 510.655 Q 1104.615 511.254 1104.615 512.393 L 1104.615 512.393 L 1104.615 512.659 L 1106.804 512.659 L 1106.804 513.265 L 1104.615 513.265 L 1104.615 520.35 Z  M 1111.877 512.629 L 1111.877 513.324 L 1111.877 513.324 Q 1110.841 513.354 1110.065 513.938 L 1110.065 513.938 L 1110.065 513.938 Q 1109.288 514.522 1108.978 515.543 L 1108.978 515.543 L 1108.978 520.35 L 1108.238 520.35 L 1108.238 512.659 L 1108.948 512.659 L 1108.948 514.552 L 1108.948 514.552 Q 1109.348 513.739 1110.006 513.228 L 1110.006 513.228 L 1110.006 513.228 Q 1110.664 512.718 1111.418 512.644 L 1111.418 512.644 L 1111.418 512.644 Q 1111.566 512.629 1111.684 512.629 L 1111.684 512.629 L 1111.684 512.629 Q 1111.803 512.629 1111.877 512.629 L 1111.877 512.629 Z  M 1115.071 520.498 L 1115.071 520.498 L 1115.071 520.498 Q 1114.539 520.498 1114.08 520.313 L 1114.08 520.313 L 1114.08 520.313 Q 1113.622 520.128 1113.274 519.81 L 1113.274 519.81 L 1113.274 519.81 Q 1112.927 519.492 1112.734 519.056 L 1112.734 519.056 L 1112.734 519.056 Q 1112.542 518.619 1112.542 518.116 L 1112.542 518.116 L 1112.542 518.116 Q 1112.542 517.614 1112.779 517.199 L 1112.779 517.199 L 1112.779 517.199 Q 1113.016 516.785 1113.437 516.482 L 1113.437 516.482 L 1113.437 516.482 Q 1113.859 516.179 1114.45 516.009 L 1114.45 516.009 L 1114.45 516.009 Q 1115.042 515.839 1115.752 515.839 L 1115.752 515.839 L 1115.752 515.839 Q 1116.373 515.839 1117.001 515.95 L 1117.001 515.95 L 1117.001 515.95 Q 1117.63 516.061 1118.133 516.253 L 1118.133 516.253 L 1118.133 515.499 L 1118.133 515.499 Q 1118.133 514.404 1117.512 513.761 L 1117.512 513.761 L 1117.512 513.761 Q 1116.89 513.117 1115.826 513.117 L 1115.826 513.117 L 1115.826 513.117 Q 1115.264 513.117 1114.635 513.354 L 1114.635 513.354 L 1114.635 513.354 Q 1114.006 513.591 1113.356 514.034 L 1113.356 514.034 L 1113.075 513.532 L 1113.075 513.532 Q 1114.554 512.526 1115.885 512.526 L 1115.885 512.526 L 1115.885 512.526 Q 1117.275 512.526 1118.074 513.332 L 1118.074 513.332 L 1118.074 513.332 Q 1118.872 514.138 1118.872 515.558 L 1118.872 515.558 L 1118.872 519.314 L 1118.872 519.314 Q 1118.872 519.684 1119.198 519.684 L 1119.198 519.684 L 1119.198 520.35 L 1119.198 520.35 Q 1119.124 520.364 1119.042 520.372 L 1119.042 520.372 L 1119.042 520.372 Q 1118.961 520.379 1118.902 520.379 L 1118.902 520.379 L 1118.902 520.379 Q 1118.606 520.379 1118.429 520.18 L 1118.429 520.18 L 1118.429 520.18 Q 1118.251 519.98 1118.222 519.699 L 1118.222 519.699 L 1118.222 519.063 L 1118.222 519.063 Q 1117.689 519.758 1116.861 520.128 L 1116.861 520.128 L 1116.861 520.128 Q 1116.033 520.498 1115.071 520.498 Z  M 1115.219 519.906 L 1115.219 519.906 L 1115.219 519.906 Q 1116.077 519.906 1116.794 519.581 L 1116.794 519.581 L 1116.794 519.581 Q 1117.512 519.255 1117.896 518.723 L 1117.896 518.723 L 1117.896 518.723 Q 1118.133 518.412 1118.133 518.131 L 1118.133 518.131 L 1118.133 516.771 L 1118.133 516.771 Q 1117.6 516.563 1117.024 516.46 L 1117.024 516.46 L 1117.024 516.46 Q 1116.447 516.356 1115.826 516.356 L 1115.826 516.356 L 1115.826 516.356 Q 1115.249 516.356 1114.776 516.482 L 1114.776 516.482 L 1114.776 516.482 Q 1114.302 516.608 1113.962 516.83 L 1113.962 516.83 L 1113.962 516.83 Q 1113.622 517.052 1113.437 517.37 L 1113.437 517.37 L 1113.437 517.37 Q 1113.252 517.688 1113.252 518.072 L 1113.252 518.072 L 1113.252 518.072 Q 1113.252 518.457 1113.4 518.797 L 1113.4 518.797 L 1113.4 518.797 Q 1113.548 519.137 1113.814 519.381 L 1113.814 519.381 L 1113.814 519.381 Q 1114.08 519.625 1114.443 519.766 L 1114.443 519.766 L 1114.443 519.766 Q 1114.805 519.906 1115.219 519.906 Z  M 1132.42 515.928 L 1132.42 520.35 L 1131.681 520.35 L 1131.681 516.061 L 1131.681 516.061 Q 1131.681 514.596 1131.229 513.901 L 1131.229 513.901 L 1131.229 513.901 Q 1130.778 513.206 1129.847 513.206 L 1129.847 513.206 L 1129.847 513.206 Q 1129.373 513.206 1128.944 513.384 L 1128.944 513.384 L 1128.944 513.384 Q 1128.515 513.561 1128.161 513.879 L 1128.161 513.879 L 1128.161 513.879 Q 1127.805 514.197 1127.547 514.633 L 1127.547 514.633 L 1127.547 514.633 Q 1127.288 515.07 1127.14 515.602 L 1127.14 515.602 L 1127.14 520.35 L 1126.4 520.35 L 1126.4 516.061 L 1126.4 516.061 Q 1126.4 514.582 1125.957 513.894 L 1125.957 513.894 L 1125.957 513.894 Q 1125.513 513.206 1124.581 513.206 L 1124.581 513.206 L 1124.581 513.206 Q 1124.108 513.206 1123.687 513.376 L 1123.687 513.376 L 1123.687 513.376 Q 1123.265 513.546 1122.91 513.864 L 1122.91 513.864 L 1122.91 513.864 Q 1122.555 514.182 1122.282 514.619 L 1122.282 514.619 L 1122.282 514.619 Q 1122.008 515.055 1121.86 515.587 L 1121.86 515.587 L 1121.86 520.35 L 1121.12 520.35 L 1121.12 512.659 L 1121.816 512.659 L 1121.816 514.493 L 1121.816 514.493 Q 1122.289 513.561 1123.058 513.043 L 1123.058 513.043 L 1123.058 513.043 Q 1123.827 512.526 1124.759 512.526 L 1124.759 512.526 L 1124.759 512.526 Q 1125.735 512.526 1126.341 513.103 L 1126.341 513.103 L 1126.341 513.103 Q 1126.948 513.679 1127.066 514.611 L 1127.066 514.611 L 1127.066 514.611 Q 1128.161 512.526 1130.083 512.526 L 1130.083 512.526 L 1130.083 512.526 Q 1131.34 512.526 1131.88 513.421 L 1131.88 513.421 L 1131.88 513.421 Q 1132.42 514.315 1132.42 515.928 L 1132.42 515.928 Z  M 1137.922 520.498 L 1137.922 520.498 L 1137.922 520.498 Q 1137.109 520.498 1136.413 520.18 L 1136.413 520.18 L 1136.413 520.18 Q 1135.718 519.862 1135.208 519.307 L 1135.208 519.307 L 1135.208 519.307 Q 1134.698 518.752 1134.409 518.028 L 1134.409 518.028 L 1134.409 518.028 Q 1134.121 517.303 1134.121 516.475 L 1134.121 516.475 L 1134.121 516.475 Q 1134.121 515.661 1134.409 514.944 L 1134.409 514.944 L 1134.409 514.944 Q 1134.698 514.227 1135.201 513.687 L 1135.201 513.687 L 1135.201 513.687 Q 1135.703 513.147 1136.391 512.836 L 1136.391 512.836 L 1136.391 512.836 Q 1137.079 512.526 1137.878 512.526 L 1137.878 512.526 L 1137.878 512.526 Q 1138.691 512.526 1139.386 512.844 L 1139.386 512.844 L 1139.386 512.844 Q 1140.081 513.162 1140.584 513.702 L 1140.584 513.702 L 1140.584 513.702 Q 1141.087 514.241 1141.368 514.959 L 1141.368 514.959 L 1141.368 514.959 Q 1141.649 515.676 1141.649 516.475 L 1141.649 516.475 L 1141.649 516.475 Q 1141.649 516.549 1141.649 516.66 L 1141.649 516.66 L 1141.649 516.66 Q 1141.649 516.771 1141.634 516.8 L 1141.634 516.8 L 1134.89 516.8 L 1134.89 516.8 Q 1134.934 517.466 1135.201 518.035 L 1135.201 518.035 L 1135.201 518.035 Q 1135.467 518.604 1135.874 519.019 L 1135.874 519.019 L 1135.874 519.019 Q 1136.28 519.433 1136.813 519.669 L 1136.813 519.669 L 1136.813 519.669 Q 1137.345 519.906 1137.951 519.906 L 1137.951 519.906 L 1137.951 519.906 Q 1138.351 519.906 1138.735 519.795 L 1138.735 519.795 L 1138.735 519.795 Q 1139.12 519.684 1139.453 519.492 L 1139.453 519.492 L 1139.453 519.492 Q 1139.785 519.3 1140.044 519.026 L 1140.044 519.026 L 1140.044 519.026 Q 1140.303 518.752 1140.451 518.427 L 1140.451 518.427 L 1141.102 518.604 L 1141.102 518.604 Q 1140.939 519.019 1140.621 519.366 L 1140.621 519.366 L 1140.621 519.366 Q 1140.303 519.714 1139.882 519.965 L 1139.882 519.965 L 1139.882 519.965 Q 1139.46 520.217 1138.957 520.357 L 1138.957 520.357 L 1138.957 520.357 Q 1138.454 520.498 1137.922 520.498 Z  M 1134.875 516.208 L 1140.939 516.208 L 1140.939 516.208 Q 1140.895 515.528 1140.636 514.966 L 1140.636 514.966 L 1140.636 514.966 Q 1140.377 514.404 1139.97 513.997 L 1139.97 513.997 L 1139.97 513.997 Q 1139.564 513.591 1139.031 513.361 L 1139.031 513.361 L 1139.031 513.361 Q 1138.499 513.132 1137.892 513.132 L 1137.892 513.132 L 1137.892 513.132 Q 1137.286 513.132 1136.753 513.361 L 1136.753 513.361 L 1136.753 513.361 Q 1136.221 513.591 1135.814 513.997 L 1135.814 513.997 L 1135.814 513.997 Q 1135.408 514.404 1135.164 514.974 L 1135.164 514.974 L 1135.164 514.974 Q 1134.92 515.543 1134.875 516.208 L 1134.875 516.208 Z  M 1149.887 519.536 L 1152.815 512.659 L 1153.555 512.659 L 1150.227 520.35 L 1149.606 520.35 L 1147.876 516.282 L 1146.145 520.35 L 1145.524 520.35 L 1142.196 512.659 L 1142.921 512.659 L 1145.864 519.536 L 1147.476 515.75 L 1146.175 512.674 L 1146.811 512.674 L 1147.876 515.218 L 1148.926 512.674 L 1149.576 512.674 L 1148.275 515.75 L 1149.887 519.536 Z  M 1157.933 520.498 L 1157.933 520.498 L 1157.933 520.498 Q 1157.119 520.498 1156.432 520.18 L 1156.432 520.18 L 1156.432 520.18 Q 1155.744 519.862 1155.241 519.314 L 1155.241 519.314 L 1155.241 519.314 Q 1154.738 518.767 1154.457 518.042 L 1154.457 518.042 L 1154.457 518.042 Q 1154.176 517.318 1154.176 516.519 L 1154.176 516.519 L 1154.176 516.519 Q 1154.176 515.706 1154.465 514.981 L 1154.465 514.981 L 1154.465 514.981 Q 1154.753 514.256 1155.256 513.709 L 1155.256 513.709 L 1155.256 513.709 Q 1155.759 513.162 1156.446 512.844 L 1156.446 512.844 L 1156.446 512.844 Q 1157.134 512.526 1157.933 512.526 L 1157.933 512.526 L 1157.933 512.526 Q 1158.732 512.526 1159.412 512.844 L 1159.412 512.844 L 1159.412 512.844 Q 1160.092 513.162 1160.602 513.709 L 1160.602 513.709 L 1160.602 513.709 Q 1161.113 514.256 1161.401 514.981 L 1161.401 514.981 L 1161.401 514.981 Q 1161.689 515.706 1161.689 516.519 L 1161.689 516.519 L 1161.689 516.519 Q 1161.689 517.318 1161.401 518.042 L 1161.401 518.042 L 1161.401 518.042 Q 1161.113 518.767 1160.61 519.314 L 1160.61 519.314 L 1160.61 519.314 Q 1160.107 519.862 1159.419 520.18 L 1159.419 520.18 L 1159.419 520.18 Q 1158.732 520.498 1157.933 520.498 Z  M 1154.916 516.549 L 1154.916 516.549 L 1154.916 516.549 Q 1154.916 517.229 1155.152 517.828 L 1155.152 517.828 L 1155.152 517.828 Q 1155.389 518.427 1155.796 518.871 L 1155.796 518.871 L 1155.796 518.871 Q 1156.202 519.314 1156.75 519.573 L 1156.75 519.573 L 1156.75 519.573 Q 1157.297 519.832 1157.918 519.832 L 1157.918 519.832 L 1157.918 519.832 Q 1158.539 519.832 1159.086 519.573 L 1159.086 519.573 L 1159.086 519.573 Q 1159.634 519.314 1160.048 518.856 L 1160.048 518.856 L 1160.048 518.856 Q 1160.462 518.397 1160.698 517.798 L 1160.698 517.798 L 1160.698 517.798 Q 1160.935 517.199 1160.935 516.504 L 1160.935 516.504 L 1160.935 516.504 Q 1160.935 515.824 1160.698 515.225 L 1160.698 515.225 L 1160.698 515.225 Q 1160.462 514.626 1160.048 514.175 L 1160.048 514.175 L 1160.048 514.175 Q 1159.634 513.724 1159.094 513.458 L 1159.094 513.458 L 1159.094 513.458 Q 1158.554 513.191 1157.933 513.191 L 1157.933 513.191 L 1157.933 513.191 Q 1157.312 513.191 1156.764 513.458 L 1156.764 513.458 L 1156.764 513.458 Q 1156.217 513.724 1155.81 514.182 L 1155.81 514.182 L 1155.81 514.182 Q 1155.404 514.641 1155.16 515.255 L 1155.16 515.255 L 1155.16 515.255 Q 1154.916 515.868 1154.916 516.549 Z  M 1167.103 512.629 L 1167.103 513.324 L 1167.103 513.324 Q 1166.067 513.354 1165.291 513.938 L 1165.291 513.938 L 1165.291 513.938 Q 1164.514 514.522 1164.204 515.543 L 1164.204 515.543 L 1164.204 520.35 L 1163.464 520.35 L 1163.464 512.659 L 1164.174 512.659 L 1164.174 514.552 L 1164.174 514.552 Q 1164.574 513.739 1165.232 513.228 L 1165.232 513.228 L 1165.232 513.228 Q 1165.89 512.718 1166.644 512.644 L 1166.644 512.644 L 1166.644 512.644 Q 1166.792 512.629 1166.91 512.629 L 1166.91 512.629 L 1166.91 512.629 Q 1167.029 512.629 1167.103 512.629 L 1167.103 512.629 Z  M 1174.882 520.35 L 1174.069 520.35 L 1171.066 516.238 L 1169.247 517.909 L 1169.247 520.35 L 1168.508 520.35 L 1168.508 509.553 L 1169.247 509.553 L 1169.247 517.096 L 1173.921 512.674 L 1174.779 512.674 L 1171.569 515.794 L 1174.882 520.35 Z  M 1176.716 520.35 L 1176.065 520.35 L 1176.065 519.093 L 1176.716 519.093 L 1176.716 520.35 Z  M 1035.013 522.968 L 1035.013 522.968 L 1035.013 522.968 Q 1034.54 522.968 1034.133 522.842 L 1034.133 522.842 L 1034.133 522.842 Q 1033.726 522.716 1033.401 522.42 L 1033.401 522.42 L 1033.8 521.932 L 1033.8 521.932 Q 1034.052 522.139 1034.347 522.213 L 1034.347 522.213 L 1034.347 522.213 Q 1034.643 522.287 1034.939 522.287 L 1034.939 522.287 L 1034.939 522.287 Q 1035.22 522.287 1035.486 522.176 L 1035.486 522.176 L 1035.486 522.176 Q 1035.752 522.065 1035.96 521.866 L 1035.96 521.866 L 1035.96 521.866 Q 1036.167 521.666 1036.3 521.392 L 1036.3 521.392 L 1036.3 521.392 Q 1036.433 521.119 1036.433 520.793 L 1036.433 520.793 L 1036.433 512.659 L 1037.172 512.659 L 1037.172 520.764 L 1037.172 520.764 Q 1037.172 521.252 1036.987 521.651 L 1036.987 521.651 L 1036.987 521.651 Q 1036.803 522.051 1036.492 522.346 L 1036.492 522.346 L 1036.492 522.346 Q 1036.181 522.642 1035.797 522.805 L 1035.797 522.805 L 1035.797 522.805 Q 1035.412 522.968 1035.013 522.968 Z  M 1037.172 510.914 L 1036.433 510.914 L 1036.433 509.553 L 1037.172 509.553 L 1037.172 510.914 Z  M 1041.373 520.498 L 1041.373 520.498 L 1041.373 520.498 Q 1040.84 520.498 1040.382 520.313 L 1040.382 520.313 L 1040.382 520.313 Q 1039.923 520.128 1039.576 519.81 L 1039.576 519.81 L 1039.576 519.81 Q 1039.228 519.492 1039.036 519.056 L 1039.036 519.056 L 1039.036 519.056 Q 1038.844 518.619 1038.844 518.116 L 1038.844 518.116 L 1038.844 518.116 Q 1038.844 517.614 1039.08 517.199 L 1039.08 517.199 L 1039.08 517.199 Q 1039.317 516.785 1039.738 516.482 L 1039.738 516.482 L 1039.738 516.482 Q 1040.16 516.179 1040.751 516.009 L 1040.751 516.009 L 1040.751 516.009 Q 1041.343 515.839 1042.053 515.839 L 1042.053 515.839 L 1042.053 515.839 Q 1042.674 515.839 1043.303 515.95 L 1043.303 515.95 L 1043.303 515.95 Q 1043.931 516.061 1044.434 516.253 L 1044.434 516.253 L 1044.434 515.499 L 1044.434 515.499 Q 1044.434 514.404 1043.813 513.761 L 1043.813 513.761 L 1043.813 513.761 Q 1043.192 513.117 1042.127 513.117 L 1042.127 513.117 L 1042.127 513.117 Q 1041.565 513.117 1040.936 513.354 L 1040.936 513.354 L 1040.936 513.354 Q 1040.308 513.591 1039.657 514.034 L 1039.657 514.034 L 1039.376 513.532 L 1039.376 513.532 Q 1040.855 512.526 1042.186 512.526 L 1042.186 512.526 L 1042.186 512.526 Q 1043.576 512.526 1044.375 513.332 L 1044.375 513.332 L 1044.375 513.332 Q 1045.174 514.138 1045.174 515.558 L 1045.174 515.558 L 1045.174 519.314 L 1045.174 519.314 Q 1045.174 519.684 1045.499 519.684 L 1045.499 519.684 L 1045.499 520.35 L 1045.499 520.35 Q 1045.425 520.364 1045.344 520.372 L 1045.344 520.372 L 1045.344 520.372 Q 1045.262 520.379 1045.203 520.379 L 1045.203 520.379 L 1045.203 520.379 Q 1044.908 520.379 1044.73 520.18 L 1044.73 520.18 L 1044.73 520.18 Q 1044.553 519.98 1044.523 519.699 L 1044.523 519.699 L 1044.523 519.063 L 1044.523 519.063 Q 1043.991 519.758 1043.162 520.128 L 1043.162 520.128 L 1043.162 520.128 Q 1042.334 520.498 1041.373 520.498 Z  M 1041.521 519.906 L 1041.521 519.906 L 1041.521 519.906 Q 1042.378 519.906 1043.096 519.581 L 1043.096 519.581 L 1043.096 519.581 Q 1043.813 519.255 1044.198 518.723 L 1044.198 518.723 L 1044.198 518.723 Q 1044.434 518.412 1044.434 518.131 L 1044.434 518.131 L 1044.434 516.771 L 1044.434 516.771 Q 1043.902 516.563 1043.325 516.46 L 1043.325 516.46 L 1043.325 516.46 Q 1042.748 516.356 1042.127 516.356 L 1042.127 516.356 L 1042.127 516.356 Q 1041.55 516.356 1041.077 516.482 L 1041.077 516.482 L 1041.077 516.482 Q 1040.604 516.608 1040.263 516.83 L 1040.263 516.83 L 1040.263 516.83 Q 1039.923 517.052 1039.738 517.37 L 1039.738 517.37 L 1039.738 517.37 Q 1039.553 517.688 1039.553 518.072 L 1039.553 518.072 L 1039.553 518.072 Q 1039.553 518.457 1039.701 518.797 L 1039.701 518.797 L 1039.701 518.797 Q 1039.849 519.137 1040.115 519.381 L 1040.115 519.381 L 1040.115 519.381 Q 1040.382 519.625 1040.744 519.766 L 1040.744 519.766 L 1040.744 519.766 Q 1041.106 519.906 1041.521 519.906 Z  M 1050.35 520.35 L 1049.581 520.35 L 1046.372 512.659 L 1047.141 512.659 L 1049.98 519.61 L 1052.835 512.659 L 1053.56 512.659 L 1050.35 520.35 Z  M 1056.725 520.498 L 1056.725 520.498 L 1056.725 520.498 Q 1056.192 520.498 1055.734 520.313 L 1055.734 520.313 L 1055.734 520.313 Q 1055.275 520.128 1054.928 519.81 L 1054.928 519.81 L 1054.928 519.81 Q 1054.58 519.492 1054.388 519.056 L 1054.388 519.056 L 1054.388 519.056 Q 1054.196 518.619 1054.196 518.116 L 1054.196 518.116 L 1054.196 518.116 Q 1054.196 517.614 1054.432 517.199 L 1054.432 517.199 L 1054.432 517.199 Q 1054.669 516.785 1055.09 516.482 L 1055.09 516.482 L 1055.09 516.482 Q 1055.512 516.179 1056.104 516.009 L 1056.104 516.009 L 1056.104 516.009 Q 1056.695 515.839 1057.405 515.839 L 1057.405 515.839 L 1057.405 515.839 Q 1058.026 515.839 1058.655 515.95 L 1058.655 515.95 L 1058.655 515.95 Q 1059.283 516.061 1059.786 516.253 L 1059.786 516.253 L 1059.786 515.499 L 1059.786 515.499 Q 1059.786 514.404 1059.165 513.761 L 1059.165 513.761 L 1059.165 513.761 Q 1058.544 513.117 1057.479 513.117 L 1057.479 513.117 L 1057.479 513.117 Q 1056.917 513.117 1056.288 513.354 L 1056.288 513.354 L 1056.288 513.354 Q 1055.66 513.591 1055.009 514.034 L 1055.009 514.034 L 1054.728 513.532 L 1054.728 513.532 Q 1056.207 512.526 1057.538 512.526 L 1057.538 512.526 L 1057.538 512.526 Q 1058.928 512.526 1059.727 513.332 L 1059.727 513.332 L 1059.727 513.332 Q 1060.526 514.138 1060.526 515.558 L 1060.526 515.558 L 1060.526 519.314 L 1060.526 519.314 Q 1060.526 519.684 1060.851 519.684 L 1060.851 519.684 L 1060.851 520.35 L 1060.851 520.35 Q 1060.777 520.364 1060.696 520.372 L 1060.696 520.372 L 1060.696 520.372 Q 1060.614 520.379 1060.555 520.379 L 1060.555 520.379 L 1060.555 520.379 Q 1060.26 520.379 1060.082 520.18 L 1060.082 520.18 L 1060.082 520.18 Q 1059.905 519.98 1059.875 519.699 L 1059.875 519.699 L 1059.875 519.063 L 1059.875 519.063 Q 1059.343 519.758 1058.514 520.128 L 1058.514 520.128 L 1058.514 520.128 Q 1057.686 520.498 1056.725 520.498 Z  M 1056.873 519.906 L 1056.873 519.906 L 1056.873 519.906 Q 1057.73 519.906 1058.448 519.581 L 1058.448 519.581 L 1058.448 519.581 Q 1059.165 519.255 1059.55 518.723 L 1059.55 518.723 L 1059.55 518.723 Q 1059.786 518.412 1059.786 518.131 L 1059.786 518.131 L 1059.786 516.771 L 1059.786 516.771 Q 1059.254 516.563 1058.677 516.46 L 1058.677 516.46 L 1058.677 516.46 Q 1058.1 516.356 1057.479 516.356 L 1057.479 516.356 L 1057.479 516.356 Q 1056.902 516.356 1056.429 516.482 L 1056.429 516.482 L 1056.429 516.482 Q 1055.956 516.608 1055.615 516.83 L 1055.615 516.83 L 1055.615 516.83 Q 1055.275 517.052 1055.09 517.37 L 1055.09 517.37 L 1055.09 517.37 Q 1054.905 517.688 1054.905 518.072 L 1054.905 518.072 L 1054.905 518.072 Q 1054.905 518.457 1055.053 518.797 L 1055.053 518.797 L 1055.053 518.797 Q 1055.201 519.137 1055.467 519.381 L 1055.467 519.381 L 1055.467 519.381 Q 1055.734 519.625 1056.096 519.766 L 1056.096 519.766 L 1056.096 519.766 Q 1056.458 519.906 1056.873 519.906 Z  M 1065.214 520.498 L 1065.214 520.498 L 1065.214 520.498 Q 1064.327 520.498 1063.513 520.202 L 1063.513 520.202 L 1063.513 520.202 Q 1062.7 519.906 1062.093 519.314 L 1062.093 519.314 L 1062.463 518.812 L 1062.463 518.812 Q 1063.084 519.374 1063.75 519.64 L 1063.75 519.64 L 1063.75 519.64 Q 1064.415 519.906 1065.214 519.906 L 1065.214 519.906 L 1065.214 519.906 Q 1066.22 519.906 1066.834 519.484 L 1066.834 519.484 L 1066.834 519.484 Q 1067.447 519.063 1067.447 518.309 L 1067.447 518.309 L 1067.447 518.309 Q 1067.447 517.954 1067.292 517.71 L 1067.292 517.71 L 1067.292 517.71 Q 1067.137 517.466 1066.826 517.296 L 1066.826 517.296 L 1066.826 517.296 Q 1066.516 517.126 1066.057 516.992 L 1066.057 516.992 L 1066.057 516.992 Q 1065.599 516.859 1064.992 516.711 L 1064.992 516.711 L 1064.992 516.711 Q 1064.342 516.563 1063.861 516.416 L 1063.861 516.416 L 1063.861 516.416 Q 1063.38 516.268 1063.07 516.061 L 1063.07 516.061 L 1063.07 516.061 Q 1062.759 515.854 1062.604 515.558 L 1062.604 515.558 L 1062.604 515.558 Q 1062.448 515.262 1062.448 514.803 L 1062.448 514.803 L 1062.448 514.803 Q 1062.448 514.227 1062.67 513.798 L 1062.67 513.798 L 1062.67 513.798 Q 1062.892 513.369 1063.284 513.088 L 1063.284 513.088 L 1063.284 513.088 Q 1063.676 512.807 1064.186 512.666 L 1064.186 512.666 L 1064.186 512.666 Q 1064.696 512.526 1065.273 512.526 L 1065.273 512.526 L 1065.273 512.526 Q 1066.176 512.526 1066.871 512.829 L 1066.871 512.829 L 1066.871 512.829 Q 1067.566 513.132 1067.95 513.605 L 1067.95 513.605 L 1067.536 514.005 L 1067.536 514.005 Q 1067.152 513.561 1066.538 513.339 L 1066.538 513.339 L 1066.538 513.339 Q 1065.924 513.117 1065.229 513.117 L 1065.229 513.117 L 1065.229 513.117 Q 1064.8 513.117 1064.423 513.206 L 1064.423 513.206 L 1064.423 513.206 Q 1064.046 513.295 1063.765 513.487 L 1063.765 513.487 L 1063.765 513.487 Q 1063.484 513.679 1063.321 513.983 L 1063.321 513.983 L 1063.321 513.983 Q 1063.158 514.286 1063.158 514.7 L 1063.158 514.7 L 1063.158 514.7 Q 1063.158 515.04 1063.269 515.247 L 1063.269 515.247 L 1063.269 515.247 Q 1063.38 515.454 1063.624 515.602 L 1063.624 515.602 L 1063.624 515.602 Q 1063.868 515.75 1064.253 515.861 L 1064.253 515.861 L 1064.253 515.861 Q 1064.637 515.972 1065.17 516.105 L 1065.17 516.105 L 1065.17 516.105 Q 1065.895 516.282 1066.457 516.445 L 1066.457 516.445 L 1066.457 516.445 Q 1067.018 516.608 1067.396 516.844 L 1067.396 516.844 L 1067.396 516.844 Q 1067.773 517.081 1067.972 517.407 L 1067.972 517.407 L 1067.972 517.407 Q 1068.172 517.732 1068.172 518.235 L 1068.172 518.235 L 1068.172 518.235 Q 1068.172 519.27 1067.366 519.884 L 1067.366 519.884 L 1067.366 519.884 Q 1066.56 520.498 1065.214 520.498 Z  M 1069.355 516.475 L 1069.355 516.475 L 1069.355 516.475 Q 1069.355 515.661 1069.636 514.937 L 1069.636 514.937 L 1069.636 514.937 Q 1069.917 514.212 1070.42 513.679 L 1070.42 513.679 L 1070.42 513.679 Q 1070.923 513.147 1071.618 512.836 L 1071.618 512.836 L 1071.618 512.836 Q 1072.313 512.526 1073.142 512.526 L 1073.142 512.526 L 1073.142 512.526 Q 1074.192 512.526 1074.99 512.999 L 1074.99 512.999 L 1074.99 512.999 Q 1075.789 513.472 1076.188 514.315 L 1076.188 514.315 L 1075.464 514.552 L 1075.464 514.552 Q 1075.124 513.916 1074.495 513.554 L 1074.495 513.554 L 1074.495 513.554 Q 1073.866 513.191 1073.112 513.191 L 1073.112 513.191 L 1073.112 513.191 Q 1072.476 513.191 1071.929 513.443 L 1071.929 513.443 L 1071.929 513.443 Q 1071.382 513.694 1070.975 514.138 L 1070.975 514.138 L 1070.975 514.138 Q 1070.568 514.582 1070.332 515.181 L 1070.332 515.181 L 1070.332 515.181 Q 1070.095 515.78 1070.095 516.475 L 1070.095 516.475 L 1070.095 516.475 Q 1070.095 517.17 1070.339 517.784 L 1070.339 517.784 L 1070.339 517.784 Q 1070.583 518.397 1070.99 518.849 L 1070.99 518.849 L 1070.99 518.849 Q 1071.396 519.3 1071.951 519.566 L 1071.951 519.566 L 1071.951 519.566 Q 1072.506 519.832 1073.127 519.832 L 1073.127 519.832 L 1073.127 519.832 Q 1073.526 519.832 1073.918 519.714 L 1073.918 519.714 L 1073.918 519.714 Q 1074.31 519.595 1074.643 519.403 L 1074.643 519.403 L 1074.643 519.403 Q 1074.976 519.211 1075.22 518.952 L 1075.22 518.952 L 1075.22 518.952 Q 1075.464 518.693 1075.552 518.412 L 1075.552 518.412 L 1076.277 518.619 L 1076.277 518.619 Q 1076.129 519.019 1075.826 519.366 L 1075.826 519.366 L 1075.826 519.366 Q 1075.523 519.714 1075.109 519.965 L 1075.109 519.965 L 1075.109 519.965 Q 1074.695 520.217 1074.192 520.357 L 1074.192 520.357 L 1074.192 520.357 Q 1073.689 520.498 1073.156 520.498 L 1073.156 520.498 L 1073.156 520.498 Q 1072.343 520.498 1071.648 520.18 L 1071.648 520.18 L 1071.648 520.18 Q 1070.953 519.862 1070.442 519.307 L 1070.442 519.307 L 1070.442 519.307 Q 1069.932 518.752 1069.644 518.028 L 1069.644 518.028 L 1069.644 518.028 Q 1069.355 517.303 1069.355 516.475 Z  M 1081.587 512.629 L 1081.587 513.324 L 1081.587 513.324 Q 1080.551 513.354 1079.775 513.938 L 1079.775 513.938 L 1079.775 513.938 Q 1078.998 514.522 1078.688 515.543 L 1078.688 515.543 L 1078.688 520.35 L 1077.948 520.35 L 1077.948 512.659 L 1078.658 512.659 L 1078.658 514.552 L 1078.658 514.552 Q 1079.058 513.739 1079.716 513.228 L 1079.716 513.228 L 1079.716 513.228 Q 1080.374 512.718 1081.128 512.644 L 1081.128 512.644 L 1081.128 512.644 Q 1081.276 512.629 1081.394 512.629 L 1081.394 512.629 L 1081.394 512.629 Q 1081.513 512.629 1081.587 512.629 L 1081.587 512.629 Z  M 1083.731 520.35 L 1082.992 520.35 L 1082.992 512.659 L 1083.731 512.659 L 1083.731 520.35 Z  M 1083.731 510.914 L 1082.992 510.914 L 1082.992 509.553 L 1083.731 509.553 L 1083.731 510.914 Z  M 1089.81 520.498 L 1089.81 520.498 L 1089.81 520.498 Q 1088.819 520.498 1088.043 519.973 L 1088.043 519.973 L 1088.043 519.973 Q 1087.266 519.448 1086.793 518.693 L 1086.793 518.693 L 1086.793 523.5 L 1086.053 523.5 L 1086.053 512.659 L 1086.734 512.659 L 1086.734 514.197 L 1086.734 514.197 Q 1087.207 513.458 1087.983 512.992 L 1087.983 512.992 L 1087.983 512.992 Q 1088.76 512.526 1089.647 512.526 L 1089.647 512.526 L 1089.647 512.526 Q 1090.446 512.526 1091.126 512.866 L 1091.126 512.866 L 1091.126 512.866 Q 1091.807 513.206 1092.295 513.761 L 1092.295 513.761 L 1092.295 513.761 Q 1092.783 514.315 1093.056 515.04 L 1093.056 515.04 L 1093.056 515.04 Q 1093.33 515.765 1093.33 516.519 L 1093.33 516.519 L 1093.33 516.519 Q 1093.33 517.318 1093.079 518.042 L 1093.079 518.042 L 1093.079 518.042 Q 1092.827 518.767 1092.361 519.314 L 1092.361 519.314 L 1092.361 519.314 Q 1091.895 519.862 1091.245 520.18 L 1091.245 520.18 L 1091.245 520.18 Q 1090.594 520.498 1089.81 520.498 Z  M 1089.633 519.832 L 1089.633 519.832 L 1089.633 519.832 Q 1090.298 519.832 1090.845 519.551 L 1090.845 519.551 L 1090.845 519.551 Q 1091.393 519.27 1091.777 518.804 L 1091.777 518.804 L 1091.777 518.804 Q 1092.162 518.338 1092.369 517.739 L 1092.369 517.739 L 1092.369 517.739 Q 1092.576 517.14 1092.576 516.519 L 1092.576 516.519 L 1092.576 516.519 Q 1092.576 515.854 1092.339 515.255 L 1092.339 515.255 L 1092.339 515.255 Q 1092.102 514.656 1091.681 514.197 L 1091.681 514.197 L 1091.681 514.197 Q 1091.259 513.739 1090.697 513.465 L 1090.697 513.465 L 1090.697 513.465 Q 1090.135 513.191 1089.499 513.191 L 1089.499 513.191 L 1089.499 513.191 Q 1089.1 513.191 1088.649 513.361 L 1088.649 513.361 L 1088.649 513.361 Q 1088.198 513.532 1087.799 513.82 L 1087.799 513.82 L 1087.799 513.82 Q 1087.399 514.108 1087.118 514.478 L 1087.118 514.478 L 1087.118 514.478 Q 1086.837 514.848 1086.793 515.262 L 1086.793 515.262 L 1086.793 517.791 L 1086.793 517.791 Q 1086.985 518.22 1087.281 518.59 L 1087.281 518.59 L 1087.281 518.59 Q 1087.577 518.959 1087.946 519.24 L 1087.946 519.24 L 1087.946 519.24 Q 1088.316 519.521 1088.745 519.677 L 1088.745 519.677 L 1088.745 519.677 Q 1089.174 519.832 1089.633 519.832 Z  M 1098.211 519.388 L 1098.432 519.98 L 1098.432 519.98 Q 1098.373 520.01 1098.233 520.091 L 1098.233 520.091 L 1098.233 520.091 Q 1098.092 520.172 1097.878 520.246 L 1097.878 520.246 L 1097.878 520.246 Q 1097.664 520.32 1097.397 520.379 L 1097.397 520.379 L 1097.397 520.379 Q 1097.131 520.438 1096.82 520.438 L 1096.82 520.438 L 1096.82 520.438 Q 1096.51 520.438 1096.236 520.35 L 1096.236 520.35 L 1096.236 520.35 Q 1095.963 520.261 1095.756 520.083 L 1095.756 520.083 L 1095.756 520.083 Q 1095.548 519.906 1095.43 519.655 L 1095.43 519.655 L 1095.43 519.655 Q 1095.312 519.403 1095.312 519.063 L 1095.312 519.063 L 1095.312 513.265 L 1094.232 513.265 L 1094.232 512.659 L 1095.312 512.659 L 1095.312 510.026 L 1096.051 510.026 L 1096.051 512.659 L 1097.841 512.659 L 1097.841 513.265 L 1096.051 513.265 L 1096.051 518.886 L 1096.051 518.886 Q 1096.051 519.314 1096.347 519.529 L 1096.347 519.529 L 1096.347 519.529 Q 1096.643 519.743 1097.013 519.743 L 1097.013 519.743 L 1097.013 519.743 Q 1097.471 519.743 1097.804 519.588 L 1097.804 519.588 L 1097.804 519.588 Q 1098.137 519.433 1098.211 519.388 L 1098.211 519.388 Z  M 1000.966 519.536 L 1003.895 512.659 L 1004.634 512.659 L 1001.307 520.35 L 1000.685 520.35 L 998.955 516.282 L 997.224 520.35 L 996.603 520.35 L 993.276 512.659 L 994 512.659 L 996.943 519.536 L 998.556 515.75 L 997.254 512.674 L 997.89 512.674 L 998.955 515.218 L 1000.005 512.674 L 1000.656 512.674 L 999.354 515.75 L 1000.966 519.536 Z  M 1009.012 520.498 L 1009.012 520.498 L 1009.012 520.498 Q 1008.199 520.498 1007.511 520.18 L 1007.511 520.18 L 1007.511 520.18 Q 1006.823 519.862 1006.32 519.314 L 1006.32 519.314 L 1006.32 519.314 Q 1005.817 518.767 1005.536 518.042 L 1005.536 518.042 L 1005.536 518.042 Q 1005.255 517.318 1005.255 516.519 L 1005.255 516.519 L 1005.255 516.519 Q 1005.255 515.706 1005.544 514.981 L 1005.544 514.981 L 1005.544 514.981 Q 1005.832 514.256 1006.335 513.709 L 1006.335 513.709 L 1006.335 513.709 Q 1006.838 513.162 1007.526 512.844 L 1007.526 512.844 L 1007.526 512.844 Q 1008.213 512.526 1009.012 512.526 L 1009.012 512.526 L 1009.012 512.526 Q 1009.811 512.526 1010.491 512.844 L 1010.491 512.844 L 1010.491 512.844 Q 1011.171 513.162 1011.682 513.709 L 1011.682 513.709 L 1011.682 513.709 Q 1012.192 514.256 1012.48 514.981 L 1012.48 514.981 L 1012.48 514.981 Q 1012.769 515.706 1012.769 516.519 L 1012.769 516.519 L 1012.769 516.519 Q 1012.769 517.318 1012.48 518.042 L 1012.48 518.042 L 1012.48 518.042 Q 1012.192 518.767 1011.689 519.314 L 1011.689 519.314 L 1011.689 519.314 Q 1011.186 519.862 1010.499 520.18 L 1010.499 520.18 L 1010.499 520.18 Q 1009.811 520.498 1009.012 520.498 Z  M 1005.995 516.549 L 1005.995 516.549 L 1005.995 516.549 Q 1005.995 517.229 1006.232 517.828 L 1006.232 517.828 L 1006.232 517.828 Q 1006.468 518.427 1006.875 518.871 L 1006.875 518.871 L 1006.875 518.871 Q 1007.282 519.314 1007.829 519.573 L 1007.829 519.573 L 1007.829 519.573 Q 1008.376 519.832 1008.997 519.832 L 1008.997 519.832 L 1008.997 519.832 Q 1009.618 519.832 1010.166 519.573 L 1010.166 519.573 L 1010.166 519.573 Q 1010.713 519.314 1011.127 518.856 L 1011.127 518.856 L 1011.127 518.856 Q 1011.541 518.397 1011.778 517.798 L 1011.778 517.798 L 1011.778 517.798 Q 1012.015 517.199 1012.015 516.504 L 1012.015 516.504 L 1012.015 516.504 Q 1012.015 515.824 1011.778 515.225 L 1011.778 515.225 L 1011.778 515.225 Q 1011.541 514.626 1011.127 514.175 L 1011.127 514.175 L 1011.127 514.175 Q 1010.713 513.724 1010.173 513.458 L 1010.173 513.458 L 1010.173 513.458 Q 1009.633 513.191 1009.012 513.191 L 1009.012 513.191 L 1009.012 513.191 Q 1008.391 513.191 1007.844 513.458 L 1007.844 513.458 L 1007.844 513.458 Q 1007.296 513.724 1006.89 514.182 L 1006.89 514.182 L 1006.89 514.182 Q 1006.483 514.641 1006.239 515.255 L 1006.239 515.255 L 1006.239 515.255 Q 1005.995 515.868 1005.995 516.549 Z  M 1018.182 512.629 L 1018.182 513.324 L 1018.182 513.324 Q 1017.147 513.354 1016.37 513.938 L 1016.37 513.938 L 1016.37 513.938 Q 1015.594 514.522 1015.283 515.543 L 1015.283 515.543 L 1015.283 520.35 L 1014.544 520.35 L 1014.544 512.659 L 1015.253 512.659 L 1015.253 514.552 L 1015.253 514.552 Q 1015.653 513.739 1016.311 513.228 L 1016.311 513.228 L 1016.311 513.228 Q 1016.969 512.718 1017.723 512.644 L 1017.723 512.644 L 1017.723 512.644 Q 1017.871 512.629 1017.99 512.629 L 1017.99 512.629 L 1017.99 512.629 Q 1018.108 512.629 1018.182 512.629 L 1018.182 512.629 Z  M 1019.646 519.048 L 1019.646 509.553 L 1020.4 509.553 L 1020.4 518.826 L 1020.4 518.826 Q 1020.4 519.255 1020.644 519.507 L 1020.644 519.507 L 1020.644 519.507 Q 1020.889 519.758 1021.317 519.758 L 1021.317 519.758 L 1021.317 519.758 Q 1021.48 519.758 1021.709 519.721 L 1021.709 519.721 L 1021.709 519.721 Q 1021.939 519.684 1022.131 519.61 L 1022.131 519.61 L 1022.279 520.202 L 1022.279 520.202 Q 1022.027 520.305 1021.658 520.372 L 1021.658 520.372 L 1021.658 520.372 Q 1021.288 520.438 1021.022 520.438 L 1021.022 520.438 L 1021.022 520.438 Q 1020.4 520.438 1020.023 520.061 L 1020.023 520.061 L 1020.023 520.061 Q 1019.646 519.684 1019.646 519.048 L 1019.646 519.048 Z  M 1026.583 520.498 L 1026.583 520.498 L 1026.583 520.498 Q 1025.784 520.498 1025.104 520.165 L 1025.104 520.165 L 1025.104 520.165 Q 1024.423 519.832 1023.928 519.277 L 1023.928 519.277 L 1023.928 519.277 Q 1023.432 518.723 1023.159 518.006 L 1023.159 518.006 L 1023.159 518.006 Q 1022.885 517.288 1022.885 516.519 L 1022.885 516.519 L 1022.885 516.519 Q 1022.885 515.72 1023.151 514.996 L 1023.151 514.996 L 1023.151 514.996 Q 1023.418 514.271 1023.891 513.724 L 1023.891 513.724 L 1023.891 513.724 Q 1024.364 513.177 1025.007 512.851 L 1025.007 512.851 L 1025.007 512.851 Q 1025.651 512.526 1026.42 512.526 L 1026.42 512.526 L 1026.42 512.526 Q 1026.923 512.526 1027.367 512.674 L 1027.367 512.674 L 1027.367 512.674 Q 1027.81 512.822 1028.195 513.066 L 1028.195 513.066 L 1028.195 513.066 Q 1028.579 513.31 1028.89 513.635 L 1028.89 513.635 L 1028.89 513.635 Q 1029.2 513.96 1029.422 514.33 L 1029.422 514.33 L 1029.422 509.553 L 1030.162 509.553 L 1030.162 519.314 L 1030.162 519.314 Q 1030.162 519.684 1030.472 519.684 L 1030.472 519.684 L 1030.472 520.35 L 1030.472 520.35 Q 1030.384 520.364 1030.324 520.372 L 1030.324 520.372 L 1030.324 520.372 Q 1030.265 520.379 1030.206 520.379 L 1030.206 520.379 L 1030.206 520.379 Q 1029.91 520.379 1029.703 520.15 L 1029.703 520.15 L 1029.703 520.15 Q 1029.496 519.921 1029.496 519.669 L 1029.496 519.669 L 1029.496 518.812 L 1029.496 518.812 Q 1029.023 519.581 1028.232 520.039 L 1028.232 520.039 L 1028.232 520.039 Q 1027.44 520.498 1026.583 520.498 Z  M 1026.716 519.832 L 1026.716 519.832 L 1026.716 519.832 Q 1027.115 519.832 1027.574 519.669 L 1027.574 519.669 L 1027.574 519.669 Q 1028.032 519.507 1028.424 519.218 L 1028.424 519.218 L 1028.424 519.218 Q 1028.816 518.93 1029.097 518.56 L 1029.097 518.56 L 1029.097 518.56 Q 1029.378 518.19 1029.422 517.761 L 1029.422 517.761 L 1029.422 515.232 L 1029.422 515.232 Q 1029.26 514.818 1028.956 514.441 L 1028.956 514.441 L 1028.956 514.441 Q 1028.653 514.064 1028.269 513.79 L 1028.269 513.79 L 1028.269 513.79 Q 1027.884 513.517 1027.44 513.354 L 1027.44 513.354 L 1027.44 513.354 Q 1026.997 513.191 1026.583 513.191 L 1026.583 513.191 L 1026.583 513.191 Q 1025.917 513.191 1025.37 513.48 L 1025.37 513.48 L 1025.37 513.48 Q 1024.823 513.768 1024.438 514.234 L 1024.438 514.234 L 1024.438 514.234 Q 1024.053 514.7 1023.847 515.299 L 1023.847 515.299 L 1023.847 515.299 Q 1023.639 515.898 1023.639 516.534 L 1023.639 516.534 L 1023.639 516.534 Q 1023.639 517.199 1023.876 517.791 L 1023.876 517.791 L 1023.876 517.791 Q 1024.113 518.383 1024.534 518.841 L 1024.534 518.841 L 1024.534 518.841 Q 1024.956 519.3 1025.51 519.566 L 1025.51 519.566 L 1025.51 519.566 Q 1026.065 519.832 1026.716 519.832 Z  M 968.931 512.629 L 968.931 513.324 L 968.931 513.324 Q 967.896 513.354 967.119 513.938 L 967.119 513.938 L 967.119 513.938 Q 966.343 514.522 966.032 515.543 L 966.032 515.543 L 966.032 520.35 L 965.293 520.35 L 965.293 512.659 L 966.003 512.659 L 966.003 514.552 L 966.003 514.552 Q 966.402 513.739 967.06 513.228 L 967.06 513.228 L 967.06 513.228 Q 967.718 512.718 968.473 512.644 L 968.473 512.644 L 968.473 512.644 Q 968.621 512.629 968.739 512.629 L 968.739 512.629 L 968.739 512.629 Q 968.857 512.629 968.931 512.629 L 968.931 512.629 Z  M 973.22 520.498 L 973.22 520.498 L 973.22 520.498 Q 972.407 520.498 971.712 520.18 L 971.712 520.18 L 971.712 520.18 Q 971.017 519.862 970.506 519.307 L 970.506 519.307 L 970.506 519.307 Q 969.996 518.752 969.708 518.028 L 969.708 518.028 L 969.708 518.028 Q 969.419 517.303 969.419 516.475 L 969.419 516.475 L 969.419 516.475 Q 969.419 515.661 969.708 514.944 L 969.708 514.944 L 969.708 514.944 Q 969.996 514.227 970.499 513.687 L 970.499 513.687 L 970.499 513.687 Q 971.002 513.147 971.69 512.836 L 971.69 512.836 L 971.69 512.836 Q 972.377 512.526 973.176 512.526 L 973.176 512.526 L 973.176 512.526 Q 973.989 512.526 974.684 512.844 L 974.684 512.844 L 974.684 512.844 Q 975.38 513.162 975.882 513.702 L 975.882 513.702 L 975.882 513.702 Q 976.385 514.241 976.666 514.959 L 976.666 514.959 L 976.666 514.959 Q 976.947 515.676 976.947 516.475 L 976.947 516.475 L 976.947 516.475 Q 976.947 516.549 976.947 516.66 L 976.947 516.66 L 976.947 516.66 Q 976.947 516.771 976.933 516.8 L 976.933 516.8 L 970.188 516.8 L 970.188 516.8 Q 970.233 517.466 970.499 518.035 L 970.499 518.035 L 970.499 518.035 Q 970.765 518.604 971.172 519.019 L 971.172 519.019 L 971.172 519.019 Q 971.579 519.433 972.111 519.669 L 972.111 519.669 L 972.111 519.669 Q 972.643 519.906 973.25 519.906 L 973.25 519.906 L 973.25 519.906 Q 973.649 519.906 974.034 519.795 L 974.034 519.795 L 974.034 519.795 Q 974.418 519.684 974.751 519.492 L 974.751 519.492 L 974.751 519.492 Q 975.084 519.3 975.343 519.026 L 975.343 519.026 L 975.343 519.026 Q 975.601 518.752 975.749 518.427 L 975.749 518.427 L 976.4 518.604 L 976.4 518.604 Q 976.237 519.019 975.919 519.366 L 975.919 519.366 L 975.919 519.366 Q 975.601 519.714 975.18 519.965 L 975.18 519.965 L 975.18 519.965 Q 974.758 520.217 974.256 520.357 L 974.256 520.357 L 974.256 520.357 Q 973.753 520.498 973.22 520.498 Z  M 970.173 516.208 L 976.237 516.208 L 976.237 516.208 Q 976.193 515.528 975.934 514.966 L 975.934 514.966 L 975.934 514.966 Q 975.675 514.404 975.269 513.997 L 975.269 513.997 L 975.269 513.997 Q 974.862 513.591 974.33 513.361 L 974.33 513.361 L 974.33 513.361 Q 973.797 513.132 973.191 513.132 L 973.191 513.132 L 973.191 513.132 Q 972.584 513.132 972.052 513.361 L 972.052 513.361 L 972.052 513.361 Q 971.519 513.591 971.113 513.997 L 971.113 513.997 L 971.113 513.997 Q 970.706 514.404 970.462 514.974 L 970.462 514.974 L 970.462 514.974 Q 970.218 515.543 970.173 516.208 L 970.173 516.208 Z  M 980.467 520.498 L 980.467 520.498 L 980.467 520.498 Q 979.935 520.498 979.476 520.313 L 979.476 520.313 L 979.476 520.313 Q 979.018 520.128 978.67 519.81 L 978.67 519.81 L 978.67 519.81 Q 978.323 519.492 978.131 519.056 L 978.131 519.056 L 978.131 519.056 Q 977.938 518.619 977.938 518.116 L 977.938 518.116 L 977.938 518.116 Q 977.938 517.614 978.175 517.199 L 978.175 517.199 L 978.175 517.199 Q 978.412 516.785 978.833 516.482 L 978.833 516.482 L 978.833 516.482 Q 979.255 516.179 979.846 516.009 L 979.846 516.009 L 979.846 516.009 Q 980.438 515.839 981.148 515.839 L 981.148 515.839 L 981.148 515.839 Q 981.769 515.839 982.397 515.95 L 982.397 515.95 L 982.397 515.95 Q 983.026 516.061 983.529 516.253 L 983.529 516.253 L 983.529 515.499 L 983.529 515.499 Q 983.529 514.404 982.908 513.761 L 982.908 513.761 L 982.908 513.761 Q 982.287 513.117 981.222 513.117 L 981.222 513.117 L 981.222 513.117 Q 980.66 513.117 980.031 513.354 L 980.031 513.354 L 980.031 513.354 Q 979.402 513.591 978.752 514.034 L 978.752 514.034 L 978.471 513.532 L 978.471 513.532 Q 979.95 512.526 981.281 512.526 L 981.281 512.526 L 981.281 512.526 Q 982.671 512.526 983.47 513.332 L 983.47 513.332 L 983.47 513.332 Q 984.268 514.138 984.268 515.558 L 984.268 515.558 L 984.268 519.314 L 984.268 519.314 Q 984.268 519.684 984.594 519.684 L 984.594 519.684 L 984.594 520.35 L 984.594 520.35 Q 984.52 520.364 984.438 520.372 L 984.438 520.372 L 984.438 520.372 Q 984.357 520.379 984.298 520.379 L 984.298 520.379 L 984.298 520.379 Q 984.002 520.379 983.825 520.18 L 983.825 520.18 L 983.825 520.18 Q 983.647 519.98 983.618 519.699 L 983.618 519.699 L 983.618 519.063 L 983.618 519.063 Q 983.085 519.758 982.257 520.128 L 982.257 520.128 L 982.257 520.128 Q 981.429 520.498 980.467 520.498 Z  M 980.615 519.906 L 980.615 519.906 L 980.615 519.906 Q 981.473 519.906 982.19 519.581 L 982.19 519.581 L 982.19 519.581 Q 982.908 519.255 983.292 518.723 L 983.292 518.723 L 983.292 518.723 Q 983.529 518.412 983.529 518.131 L 983.529 518.131 L 983.529 516.771 L 983.529 516.771 Q 982.996 516.563 982.42 516.46 L 982.42 516.46 L 982.42 516.46 Q 981.843 516.356 981.222 516.356 L 981.222 516.356 L 981.222 516.356 Q 980.645 516.356 980.172 516.482 L 980.172 516.482 L 980.172 516.482 Q 979.698 516.608 979.358 516.83 L 979.358 516.83 L 979.358 516.83 Q 979.018 517.052 978.833 517.37 L 978.833 517.37 L 978.833 517.37 Q 978.648 517.688 978.648 518.072 L 978.648 518.072 L 978.648 518.072 Q 978.648 518.457 978.796 518.797 L 978.796 518.797 L 978.796 518.797 Q 978.944 519.137 979.21 519.381 L 979.21 519.381 L 979.21 519.381 Q 979.476 519.625 979.839 519.766 L 979.839 519.766 L 979.839 519.766 Q 980.201 519.906 980.615 519.906 Z  M 986.576 519.048 L 986.576 509.553 L 987.33 509.553 L 987.33 518.826 L 987.33 518.826 Q 987.33 519.255 987.574 519.507 L 987.574 519.507 L 987.574 519.507 Q 987.818 519.758 988.247 519.758 L 988.247 519.758 L 988.247 519.758 Q 988.41 519.758 988.639 519.721 L 988.639 519.721 L 988.639 519.721 Q 988.868 519.684 989.06 519.61 L 989.06 519.61 L 989.208 520.202 L 989.208 520.202 Q 988.957 520.305 988.587 520.372 L 988.587 520.372 L 988.587 520.372 Q 988.217 520.438 987.951 520.438 L 987.951 520.438 L 987.951 520.438 Q 987.33 520.438 986.953 520.061 L 986.953 520.061 L 986.953 520.061 Q 986.576 519.684 986.576 519.048 L 986.576 519.048 Z  M 942.945 509.849 L 942.945 510.529 L 939.1 510.529 L 939.1 520.35 L 938.345 520.35 L 938.345 510.529 L 934.5 510.529 L 934.5 509.849 L 942.945 509.849 Z  M 950.636 515.928 L 950.636 520.35 L 949.896 520.35 L 949.896 516.061 L 949.896 516.061 Q 949.896 513.206 947.988 513.206 L 947.988 513.206 L 947.988 513.206 Q 947.515 513.206 947.064 513.384 L 947.064 513.384 L 947.064 513.384 Q 946.613 513.561 946.221 513.886 L 946.221 513.886 L 946.221 513.886 Q 945.829 514.212 945.533 514.648 L 945.533 514.648 L 945.533 514.648 Q 945.238 515.085 945.09 515.587 L 945.09 515.587 L 945.09 520.35 L 944.35 520.35 L 944.35 509.553 L 945.09 509.553 L 945.09 514.493 L 945.09 514.493 Q 945.563 513.591 946.399 513.058 L 946.399 513.058 L 946.399 513.058 Q 947.234 512.526 948.196 512.526 L 948.196 512.526 L 948.196 512.526 Q 948.832 512.526 949.29 512.762 L 949.29 512.762 L 949.29 512.762 Q 949.749 512.999 950.052 513.443 L 950.052 513.443 L 950.052 513.443 Q 950.355 513.886 950.495 514.515 L 950.495 514.515 L 950.495 514.515 Q 950.636 515.144 950.636 515.928 L 950.636 515.928 Z  M 956.138 520.498 L 956.138 520.498 L 956.138 520.498 Q 955.324 520.498 954.629 520.18 L 954.629 520.18 L 954.629 520.18 Q 953.934 519.862 953.424 519.307 L 953.424 519.307 L 953.424 519.307 Q 952.914 518.752 952.625 518.028 L 952.625 518.028 L 952.625 518.028 Q 952.337 517.303 952.337 516.475 L 952.337 516.475 L 952.337 516.475 Q 952.337 515.661 952.625 514.944 L 952.625 514.944 L 952.625 514.944 Q 952.914 514.227 953.416 513.687 L 953.416 513.687 L 953.416 513.687 Q 953.919 513.147 954.607 512.836 L 954.607 512.836 L 954.607 512.836 Q 955.295 512.526 956.093 512.526 L 956.093 512.526 L 956.093 512.526 Q 956.907 512.526 957.602 512.844 L 957.602 512.844 L 957.602 512.844 Q 958.297 513.162 958.8 513.702 L 958.8 513.702 L 958.8 513.702 Q 959.303 514.241 959.584 514.959 L 959.584 514.959 L 959.584 514.959 Q 959.865 515.676 959.865 516.475 L 959.865 516.475 L 959.865 516.475 Q 959.865 516.549 959.865 516.66 L 959.865 516.66 L 959.865 516.66 Q 959.865 516.771 959.85 516.8 L 959.85 516.8 L 953.106 516.8 L 953.106 516.8 Q 953.15 517.466 953.416 518.035 L 953.416 518.035 L 953.416 518.035 Q 953.683 518.604 954.089 519.019 L 954.089 519.019 L 954.089 519.019 Q 954.496 519.433 955.029 519.669 L 955.029 519.669 L 955.029 519.669 Q 955.561 519.906 956.167 519.906 L 956.167 519.906 L 956.167 519.906 Q 956.567 519.906 956.951 519.795 L 956.951 519.795 L 956.951 519.795 Q 957.336 519.684 957.669 519.492 L 957.669 519.492 L 957.669 519.492 Q 958.001 519.3 958.26 519.026 L 958.26 519.026 L 958.26 519.026 Q 958.519 518.752 958.667 518.427 L 958.667 518.427 L 959.318 518.604 L 959.318 518.604 Q 959.155 519.019 958.837 519.366 L 958.837 519.366 L 958.837 519.366 Q 958.519 519.714 958.097 519.965 L 958.097 519.965 L 958.097 519.965 Q 957.676 520.217 957.173 520.357 L 957.173 520.357 L 957.173 520.357 Q 956.67 520.498 956.138 520.498 Z  M 953.091 516.208 L 959.155 516.208 L 959.155 516.208 Q 959.111 515.528 958.852 514.966 L 958.852 514.966 L 958.852 514.966 Q 958.593 514.404 958.186 513.997 L 958.186 513.997 L 958.186 513.997 Q 957.779 513.591 957.247 513.361 L 957.247 513.361 L 957.247 513.361 Q 956.715 513.132 956.108 513.132 L 956.108 513.132 L 956.108 513.132 Q 955.502 513.132 954.969 513.361 L 954.969 513.361 L 954.969 513.361 Q 954.437 513.591 954.03 513.997 L 954.03 513.997 L 954.03 513.997 Q 953.623 514.404 953.379 514.974 L 953.379 514.974 L 953.379 514.974 Q 953.135 515.543 953.091 516.208 L 953.091 516.208 Z " fill="rgb(189,189,189)"/></g></g></g><g><path d=" M 791.248 442 L 802.481 450.463 L 804.943 460.156 L 799.711 486.93 L 802.481 502.624 L 820.483 523.396 L 820.483 508.471 L 822.791 485.237 L 820.483 464.003 L 809.866 448.616 L 791.248 442 Z " fill="rgb(201,255,77)"/><path d=" M 822.791 512.933 L 822.791 524.935 L 826.33 541.861 L 827.715 540.937 L 824.176 524.935 L 822.791 512.933 Z " fill="rgb(198,182,147)"/><path d=" M 836.493 540.363 L 835.238 529.675 L 841.007 520.185 L 853.502 511.632 L 867.549 510.619 L 889.87 517.631 L 900.308 522.692 L 915.5 522.692 L 891.57 527.824 L 870.514 526.874 L 857.4 526.275 L 847.107 529.015 L 836.493 540.363 Z " fill="rgb(201,255,77)"/><path d=" M 915.5 522.692 L 900.308 535.175 L 881.415 544.26 L 865.567 546.561 L 853.502 545.33 L 846.02 543.484 L 838.487 541.878 L 839.188 538.964 L 846.477 531.342 L 857.131 527.824 L 891.57 529.015 L 915.5 522.692 Z " fill="rgb(145,213,69)"/><path d=" M 839.188 538.964 L 835.939 544.26 L 834.289 549.586 L 833.699 556.333 L 835.928 555.74 L 835.669 549.218 L 838.487 541.878 L 839.188 538.964 Z " fill="rgb(198,182,147)"/><path d=" M 791.248 442.923 L 804.943 442.923 L 809.866 449.54 L 791.248 442.923 Z " fill="rgb(181,236,118)"/><path d=" M 804.943 442.923 L 824.176 451.386 L 809.866 449.54 L 804.943 442.923 Z " fill="rgb(181,236,118)"/><path d=" M 809.866 449.54 L 817.252 458.158 L 824.176 451.386 L 809.866 449.54 Z " fill="rgb(145,213,69)"/><path d=" M 824.176 451.386 L 840.64 472.466 L 822.791 464.926 L 824.176 451.386 Z " fill="rgb(127,193,65)"/><path d=" M 824.176 451.386 L 817.252 458.158 L 822.791 464.926 L 824.176 451.386 Z " fill="rgb(145,213,69)"/><path d=" M 822.791 464.926 L 825.253 486.16 L 840.64 472.466 L 822.791 464.926 Z " fill="rgb(105,172,43)"/><path d=" M 840.64 472.466 L 845.41 489.778 L 825.253 486.16 L 840.64 472.466 Z " fill="rgb(88,149,32)"/><path d=" M 845.41 500.932 L 845.41 489.778 L 825.253 486.16 L 845.41 500.932 Z " fill="rgb(67,117,21)"/><path d=" M 845.41 500.932 L 839.948 511.702 L 825.253 486.16 L 845.41 500.932 Z " fill="rgb(55,100,14)"/><path d=" M 825.253 486.16 L 822.791 513.857 L 839.948 511.702 L 825.253 486.16 Z " fill="rgb(35,64,7)"/><path d=" M 839.948 511.632 L 827.715 522.2 L 822.791 513.589 L 839.948 511.632 Z " fill="rgb(44,79,11)"/><path d=" M 822.791 513.589 L 823.715 523.396 L 827.715 522.2 L 822.791 513.589 Z " fill="rgb(44,79,11)"/></g></g></svg>