<svg id="Capa_1" height="15" viewBox="0 0 512 512" width="15" xmlns="http://www.w3.org/2000/svg"><g><path d="m331 273.999v-108.999h-75-75v108.999l-53.401 57.001 38.401 30h90 90l38.401-30z" fill="#edf5ff"/><path d="m384.401 331-53.401-57.001v-108.999h-75v196h90z" fill="#d5e8fe"/><path d="m408.401 361c-7.63-14.086-18.972-24.296-24-30h-128.401-128.401c-4.552 5.164-16.296 15.78-24 30-8.098 14.7-12.599 31.5-12.599 48.9 0 55.8 45.3 102.1 101.1 102.1h63.9 63.9c55.8 0 101.1-46.3 101.1-102.1 0-17.4-4.501-34.2-12.599-48.9z" fill="#ff8e8e"/><path d="m421 409.9c0-17.401-4.501-34.2-12.599-48.9-7.63-14.086-18.972-24.296-24-30h-128.401v181h63.9c55.8 0 101.1-46.3 101.1-102.1z" fill="#ff5e95"/><circle cx="316" cy="105" fill="#d5e8fe" r="15"/><circle cx="346" cy="45" fill="#d5e8fe" r="15"/><circle cx="286" cy="436" fill="#e63950" r="15"/><circle cx="226" cy="406" fill="#ff5e95" r="15"/><path d="m346 150h-90-90c-8.291 0-15 6.709-15 15s6.709 15 15 15h90 90c8.291 0 15-6.709 15-15s-6.709-15-15-15z" fill="#d5e8fe"/><path d="m361 165c0-8.291-6.709-15-15-15h-90v30h90c8.291 0 15-6.709 15-15z" fill="#b5dbff"/><g><path d="m256 0c-11.572 0-21.841 3.97-30 11.323-8.159-7.353-18.428-11.323-30-11.323-23.13 0-45 21.87-45 45 0 23.379 18.867 43.813 67.28 72.861 2.373 1.421 5.054 2.139 7.72 2.139s5.347-.718 7.72-2.139c48.413-29.062 67.28-49.482 67.28-72.861 0-23.13-21.87-45-45-45z" fill="#ff8e8e"/><path d="m301 45c0-23.13-21.87-45-45-45-11.572 0-21.841 3.97-30 11.323v108.677c2.666 0 5.347-.718 7.72-2.139 48.413-29.062 67.28-49.482 67.28-72.861z" fill="#ff5e95"/></g></g></svg>
