<?xml version="1.0" encoding="UTF-8" standalone="no"?><!-- Generator: Gravit.io --><svg xmlns="http://www.w3.org/2000/svg" xmlns:xlink="http://www.w3.org/1999/xlink" style="isolation:isolate" viewBox="791.248 442 386.626 114.333" width="386.626pt" height="114.333pt"><g><g><g><g><path d=" M 954.151 482.963 L 954.151 482.963 Q 954.94 482.963 955.433 483.489 L 955.433 483.489 L 955.433 483.489 Q 955.926 484.014 955.926 484.803 L 955.926 484.803 L 955.926 503.964 L 955.926 503.964 Q 955.926 504.819 955.351 505.394 L 955.351 505.394 L 955.351 505.394 Q 954.775 505.969 953.921 505.969 L 953.921 505.969 L 953.921 505.969 Q 953.461 505.969 953.017 505.821 L 953.017 505.821 L 953.017 505.821 Q 952.573 505.674 952.376 505.411 L 952.376 505.411 L 940.314 490.095 L 940.314 504.129 L 940.314 504.129 Q 940.314 504.918 939.805 505.443 L 939.805 505.443 L 939.805 505.443 Q 939.295 505.969 938.474 505.969 L 938.474 505.969 L 938.474 505.969 Q 937.685 505.969 937.192 505.443 L 937.192 505.443 L 937.192 505.443 Q 936.699 504.918 936.699 504.129 L 936.699 504.129 L 936.699 484.968 L 936.699 484.968 Q 936.699 484.113 937.274 483.538 L 937.274 483.538 L 937.274 483.538 Q 937.849 482.963 938.704 482.963 L 938.704 482.963 L 938.704 482.963 Q 939.197 482.963 939.673 483.16 L 939.673 483.16 L 939.673 483.16 Q 940.15 483.357 940.38 483.686 L 940.38 483.686 L 952.343 498.936 L 952.343 484.803 L 952.343 484.803 Q 952.343 484.014 952.853 483.489 L 952.853 483.489 L 952.853 483.489 Q 953.362 482.963 954.151 482.963 L 954.151 482.963 Z  M 1014.889 494.466 L 1014.889 494.466 Q 1014.889 497.72 1013.443 500.431 L 1013.443 500.431 L 1013.443 500.431 Q 1011.996 503.143 1009.449 504.72 L 1009.449 504.72 L 1009.449 504.72 Q 1006.902 506.298 1003.714 506.298 L 1003.714 506.298 L 1003.714 506.298 Q 1000.526 506.298 997.979 504.72 L 997.979 504.72 L 997.979 504.72 Q 995.432 503.143 994.002 500.431 L 994.002 500.431 L 994.002 500.431 Q 992.572 497.72 992.572 494.466 L 992.572 494.466 L 992.572 494.466 Q 992.572 491.212 994.002 488.501 L 994.002 488.501 L 994.002 488.501 Q 995.432 485.789 997.979 484.212 L 997.979 484.212 L 997.979 484.212 Q 1000.526 482.634 1003.714 482.634 L 1003.714 482.634 L 1003.714 482.634 Q 1006.902 482.634 1009.449 484.212 L 1009.449 484.212 L 1009.449 484.212 Q 1011.996 485.789 1013.443 488.501 L 1013.443 488.501 L 1013.443 488.501 Q 1014.889 491.212 1014.889 494.466 L 1014.889 494.466 Z  M 1010.616 494.466 L 1010.616 494.466 Q 1010.616 492.264 1009.729 490.473 L 1009.729 490.473 L 1009.729 490.473 Q 1008.841 488.681 1007.264 487.63 L 1007.264 487.63 L 1007.264 487.63 Q 1005.686 486.578 1003.714 486.578 L 1003.714 486.578 L 1003.714 486.578 Q 1001.709 486.578 1000.148 487.613 L 1000.148 487.613 L 1000.148 487.613 Q 998.587 488.649 997.716 490.456 L 997.716 490.456 L 997.716 490.456 Q 996.845 492.264 996.845 494.466 L 996.845 494.466 L 996.845 494.466 Q 996.845 496.668 997.716 498.476 L 997.716 498.476 L 997.716 498.476 Q 998.587 500.283 1000.148 501.319 L 1000.148 501.319 L 1000.148 501.319 Q 1001.709 502.354 1003.714 502.354 L 1003.714 502.354 L 1003.714 502.354 Q 1005.686 502.354 1007.264 501.302 L 1007.264 501.302 L 1007.264 501.302 Q 1008.841 500.251 1009.729 498.459 L 1009.729 498.459 L 1009.729 498.459 Q 1010.616 496.668 1010.616 494.466 L 1010.616 494.466 Z  M 1067.968 482.897 L 1067.968 482.897 Q 1068.79 482.897 1069.398 483.456 L 1069.398 483.456 L 1069.398 483.456 Q 1070.006 484.014 1070.006 484.803 L 1070.006 484.803 L 1070.006 484.803 Q 1070.006 485.23 1069.809 485.691 L 1069.809 485.691 L 1061.691 504.687 L 1061.691 504.687 Q 1061.395 505.312 1060.869 505.641 L 1060.869 505.641 L 1060.869 505.641 Q 1060.343 505.969 1059.752 505.969 L 1059.752 505.969 L 1059.752 505.969 Q 1059.193 505.936 1058.716 505.624 L 1058.716 505.624 L 1058.716 505.624 Q 1058.24 505.312 1057.977 504.72 L 1057.977 504.72 L 1049.859 485.658 L 1049.859 485.658 Q 1049.695 485.329 1049.695 484.836 L 1049.695 484.836 L 1049.695 484.836 Q 1049.695 483.949 1050.352 483.406 L 1050.352 483.406 L 1050.352 483.406 Q 1051.009 482.864 1051.699 482.864 L 1051.699 482.864 L 1051.699 482.864 Q 1052.258 482.864 1052.751 483.193 L 1052.751 483.193 L 1052.751 483.193 Q 1053.244 483.521 1053.507 484.146 L 1053.507 484.146 L 1060.113 499.692 L 1066.161 484.146 L 1066.161 484.146 Q 1066.424 483.554 1066.917 483.226 L 1066.917 483.226 L 1066.917 483.226 Q 1067.41 482.897 1067.968 482.897 L 1067.968 482.897 Z  M 1122.659 482.93 L 1122.659 482.93 Q 1123.513 482.93 1124.039 483.489 L 1124.039 483.489 L 1124.039 483.489 Q 1124.565 484.047 1124.565 484.935 L 1124.565 484.935 L 1124.565 496.832 L 1124.565 496.832 Q 1124.565 499.56 1123.415 501.664 L 1123.415 501.664 L 1123.415 501.664 Q 1122.264 503.767 1120.194 504.95 L 1120.194 504.95 L 1120.194 504.95 Q 1118.123 506.134 1115.461 506.134 L 1115.461 506.134 L 1115.461 506.134 Q 1112.799 506.134 1110.712 504.95 L 1110.712 504.95 L 1110.712 504.95 Q 1108.625 503.767 1107.474 501.664 L 1107.474 501.664 L 1107.474 501.664 Q 1106.324 499.56 1106.324 496.832 L 1106.324 496.832 L 1106.324 484.935 L 1106.324 484.935 Q 1106.324 484.08 1106.915 483.505 L 1106.915 483.505 L 1106.915 483.505 Q 1107.507 482.93 1108.427 482.93 L 1108.427 482.93 L 1108.427 482.93 Q 1109.216 482.93 1109.808 483.505 L 1109.808 483.505 L 1109.808 483.505 Q 1110.399 484.08 1110.399 484.935 L 1110.399 484.935 L 1110.399 496.832 L 1110.399 496.832 Q 1110.399 498.41 1111.09 499.642 L 1111.09 499.642 L 1111.09 499.642 Q 1111.78 500.875 1112.946 501.532 L 1112.946 501.532 L 1112.946 501.532 Q 1114.113 502.19 1115.461 502.19 L 1115.461 502.19 L 1115.461 502.19 Q 1116.874 502.19 1118.107 501.532 L 1118.107 501.532 L 1118.107 501.532 Q 1119.339 500.875 1120.079 499.642 L 1120.079 499.642 L 1120.079 499.642 Q 1120.818 498.41 1120.818 496.832 L 1120.818 496.832 L 1120.818 484.935 L 1120.818 484.935 Q 1120.818 484.047 1121.311 483.489 L 1121.311 483.489 L 1121.311 483.489 Q 1121.804 482.93 1122.659 482.93 L 1122.659 482.93 Z  M 1169.428 506.298 L 1169.428 506.298 Q 1167.062 506.298 1165.221 505.706 L 1165.221 505.706 L 1165.221 505.706 Q 1163.38 505.115 1161.77 503.702 L 1161.77 503.702 L 1161.77 503.702 Q 1160.883 502.913 1160.883 501.96 L 1160.883 501.96 L 1160.883 501.96 Q 1160.883 501.204 1161.441 500.628 L 1161.441 500.628 L 1161.441 500.628 Q 1162 500.053 1162.789 500.053 L 1162.789 500.053 L 1162.789 500.053 Q 1163.413 500.053 1163.906 500.448 L 1163.906 500.448 L 1163.906 500.448 Q 1165.221 501.532 1166.47 502.025 L 1166.47 502.025 L 1166.47 502.025 Q 1167.719 502.518 1169.428 502.518 L 1169.428 502.518 L 1169.428 502.518 Q 1171.269 502.518 1172.6 501.697 L 1172.6 501.697 L 1172.6 501.697 Q 1173.931 500.875 1173.931 499.659 L 1173.931 499.659 L 1173.931 499.659 Q 1173.931 498.18 1172.616 497.342 L 1172.616 497.342 L 1172.616 497.342 Q 1171.301 496.504 1168.442 496.076 L 1168.442 496.076 L 1168.442 496.076 Q 1161.244 495.025 1161.244 489.372 L 1161.244 489.372 L 1161.244 489.372 Q 1161.244 487.301 1162.329 485.773 L 1162.329 485.773 L 1162.329 485.773 Q 1163.413 484.244 1165.287 483.439 L 1165.287 483.439 L 1165.287 483.439 Q 1167.16 482.634 1169.461 482.634 L 1169.461 482.634 L 1169.461 482.634 Q 1171.531 482.634 1173.356 483.258 L 1173.356 483.258 L 1173.356 483.258 Q 1175.18 483.883 1176.396 484.902 L 1176.396 484.902 L 1176.396 484.902 Q 1177.349 485.658 1177.349 486.644 L 1177.349 486.644 L 1177.349 486.644 Q 1177.349 487.4 1176.79 487.975 L 1176.79 487.975 L 1176.79 487.975 Q 1176.231 488.55 1175.475 488.55 L 1175.475 488.55 L 1175.475 488.55 Q 1174.982 488.55 1174.588 488.254 L 1174.588 488.254 L 1174.588 488.254 Q 1173.733 487.564 1172.205 486.989 L 1172.205 486.989 L 1172.205 486.989 Q 1170.677 486.414 1169.461 486.414 L 1169.461 486.414 L 1169.461 486.414 Q 1167.39 486.414 1166.256 487.186 L 1166.256 487.186 L 1166.256 487.186 Q 1165.122 487.958 1165.122 489.207 L 1165.122 489.207 L 1165.122 489.207 Q 1165.122 490.621 1166.289 491.344 L 1166.289 491.344 L 1166.289 491.344 Q 1167.456 492.067 1169.954 492.527 L 1169.954 492.527 L 1169.954 492.527 Q 1172.78 493.02 1174.473 493.792 L 1174.473 493.792 L 1174.473 493.792 Q 1176.166 494.565 1177.02 495.896 L 1177.02 495.896 L 1177.02 495.896 Q 1177.875 497.227 1177.875 499.429 L 1177.875 499.429 L 1177.875 499.429 Q 1177.875 501.499 1176.708 503.061 L 1176.708 503.061 L 1176.708 503.061 Q 1175.541 504.622 1173.602 505.46 L 1173.602 505.46 L 1173.602 505.46 Q 1171.663 506.298 1169.428 506.298 L 1169.428 506.298 Z " fill="rgb(62,62,62)"/></g></g></g><g><path d=" M 791.248 442 L 802.481 450.463 L 804.943 460.156 L 799.711 486.93 L 802.481 502.624 L 820.483 523.396 L 820.483 508.471 L 822.791 485.237 L 820.483 464.003 L 809.866 448.616 L 791.248 442 Z " fill="rgb(201,255,77)"/><path d=" M 822.791 512.933 L 822.791 524.935 L 826.33 541.861 L 827.715 540.937 L 824.176 524.935 L 822.791 512.933 Z " fill="rgb(198,182,147)"/><path d=" M 836.493 540.363 L 835.238 529.675 L 841.007 520.185 L 853.502 511.632 L 867.549 510.619 L 889.87 517.631 L 900.308 522.692 L 915.5 522.692 L 891.57 527.824 L 870.514 526.874 L 857.4 526.275 L 847.107 529.015 L 836.493 540.363 Z " fill="rgb(201,255,77)"/><path d=" M 915.5 522.692 L 900.308 535.175 L 881.415 544.26 L 865.567 546.561 L 853.502 545.33 L 846.02 543.484 L 838.487 541.878 L 839.188 538.964 L 846.477 531.342 L 857.131 527.824 L 891.57 529.015 L 915.5 522.692 Z " fill="rgb(145,213,69)"/><path d=" M 839.188 538.964 L 835.939 544.26 L 834.289 549.586 L 833.699 556.333 L 835.928 555.74 L 835.669 549.218 L 838.487 541.878 L 839.188 538.964 Z " fill="rgb(198,182,147)"/><path d=" M 791.248 442.923 L 804.943 442.923 L 809.866 449.54 L 791.248 442.923 Z " fill="rgb(181,236,118)"/><path d=" M 804.943 442.923 L 824.176 451.386 L 809.866 449.54 L 804.943 442.923 Z " fill="rgb(181,236,118)"/><path d=" M 809.866 449.54 L 817.252 458.158 L 824.176 451.386 L 809.866 449.54 Z " fill="rgb(145,213,69)"/><path d=" M 824.176 451.386 L 840.64 472.466 L 822.791 464.926 L 824.176 451.386 Z " fill="rgb(127,193,65)"/><path d=" M 824.176 451.386 L 817.252 458.158 L 822.791 464.926 L 824.176 451.386 Z " fill="rgb(145,213,69)"/><path d=" M 822.791 464.926 L 825.253 486.16 L 840.64 472.466 L 822.791 464.926 Z " fill="rgb(105,172,43)"/><path d=" M 840.64 472.466 L 845.41 489.778 L 825.253 486.16 L 840.64 472.466 Z " fill="rgb(88,149,32)"/><path d=" M 845.41 500.932 L 845.41 489.778 L 825.253 486.16 L 845.41 500.932 Z " fill="rgb(67,117,21)"/><path d=" M 845.41 500.932 L 839.948 511.702 L 825.253 486.16 L 845.41 500.932 Z " fill="rgb(55,100,14)"/><path d=" M 825.253 486.16 L 822.791 513.857 L 839.948 511.702 L 825.253 486.16 Z " fill="rgb(35,64,7)"/><path d=" M 839.948 511.632 L 827.715 522.2 L 822.791 513.589 L 839.948 511.632 Z " fill="rgb(44,79,11)"/><path d=" M 822.791 513.589 L 823.715 523.396 L 827.715 522.2 L 822.791 513.589 Z " fill="rgb(44,79,11)"/></g></g></svg>