<?xml version="1.0" encoding="UTF-8" standalone="no"?><!-- Generator: Gravit.io --><svg xmlns="http://www.w3.org/2000/svg" xmlns:xlink="http://www.w3.org/1999/xlink" style="isolation:isolate" viewBox="4159.125 50.542 388.875 517.021" width="388.875pt" height="517.021pt"><g><path d=" M 4373.617 360.915 C 4394.858 356.98 4414.11 347.351 4429.731 333.674 L 4429.731 333.674 L 4429.731 333.674 L 4483.679 387.622 C 4449.05 419.571 4402.791 439.099 4352.007 439.099 C 4252.699 439.099 4170.693 364.426 4159.125 268.213 L 4236.257 268.213 C 4245.729 315.263 4283.207 352.226 4330.525 360.939 L 4350.906 400.774 L 4373.617 360.915 L 4373.617 360.915 Z  M 4372.823 128.581 C 4428.076 138.425 4470.079 186.756 4470.079 244.82 C 4470.079 262.644 4466.121 279.552 4459.036 294.71 L 4459.036 294.71 L 4514.942 350.615 C 4534.764 320.167 4546.286 283.828 4546.286 244.82 C 4546.286 137.595 4459.232 50.542 4352.007 50.542 C 4253.211 50.542 4171.54 124.446 4159.31 219.939 L 4236.566 219.939 C 4246.778 172.41 4285.634 135.466 4334.151 128.093 L 4354.395 92.563 L 4372.823 128.581 L 4372.823 128.581 L 4372.823 128.581 Z  M 4283.338 244.82 C 4283.338 206.535 4314.42 175.452 4352.706 175.452 C 4390.991 175.452 4422.073 206.535 4422.073 244.82 C 4422.073 283.105 4390.991 314.188 4352.706 314.188 C 4314.42 314.188 4283.338 283.105 4283.338 244.82 Z " fill-rule="evenodd" fill="rgb(255,111,111)"/><path d=" M 4160.79 496.199 C 4160.79 508.25 4170.431 517.771 4182.422 517.771 C 4191.159 517.771 4197.366 513.854 4197.366 513.854 C 4197.606 513.673 4197.847 513.191 4197.847 512.89 L 4197.787 496.681 C 4197.787 496.078 4197.305 495.536 4196.702 495.536 L 4184.591 495.536 C 4183.928 495.536 4183.446 496.018 4183.446 496.681 L 4183.446 502.646 C 4183.446 503.249 4183.928 503.731 4184.591 503.731 L 4188.388 503.731 L 4188.388 507.226 C 4186.58 507.949 4184.772 508.19 4183.025 508.19 C 4176.456 508.19 4171.093 502.767 4171.093 496.199 C 4171.093 489.571 4176.396 484.027 4182.965 484.027 C 4185.916 484.027 4188.568 484.81 4190.858 486.919 C 4191.339 487.281 4192.003 487.281 4192.484 486.859 L 4197.245 481.797 C 4197.727 481.315 4197.667 480.592 4197.125 480.17 C 4193.027 476.615 4187.484 474.506 4182.422 474.506 C 4170.431 474.506 4160.79 484.147 4160.79 496.199 Z  M 4238.97 516.084 C 4238.97 516.686 4239.513 517.228 4240.115 517.228 L 4247.346 517.228 C 4247.948 517.228 4248.491 516.686 4248.491 516.084 L 4248.491 476.194 C 4248.491 475.591 4247.948 475.049 4247.346 475.049 L 4240.115 475.049 C 4239.513 475.049 4238.97 475.591 4238.97 476.194 L 4238.97 516.084 Z  M 4297.146 516.084 C 4297.146 516.686 4297.687 517.228 4298.291 517.228 L 4305.52 517.228 C 4306.124 517.228 4306.665 516.686 4306.665 516.084 L 4306.665 483.906 L 4315.282 483.906 C 4315.945 483.906 4316.427 483.364 4316.427 482.762 L 4316.427 476.194 C 4316.427 475.591 4315.945 475.049 4315.282 475.049 L 4288.529 475.049 C 4287.866 475.049 4287.383 475.591 4287.383 476.194 L 4287.383 482.762 C 4287.383 483.364 4287.866 483.906 4288.529 483.906 L 4297.146 483.906 L 4297.146 516.084 Z  M 4355.32 516.084 C 4355.32 516.686 4355.863 517.228 4356.465 517.228 L 4363.636 517.228 C 4364.298 517.228 4364.781 516.686 4364.781 516.084 L 4364.781 500.236 L 4382.014 500.236 L 4382.014 516.084 C 4382.014 516.686 4382.496 517.228 4383.159 517.228 L 4390.33 517.228 C 4390.932 517.228 4391.475 516.686 4391.475 516.084 L 4391.475 476.194 C 4391.475 475.591 4390.932 475.049 4390.33 475.049 L 4383.159 475.049 C 4382.496 475.049 4382.014 475.591 4382.014 476.194 L 4382.014 491.378 L 4364.781 491.378 L 4364.781 476.194 C 4364.781 475.591 4364.298 475.049 4363.636 475.049 L 4356.465 475.049 C 4355.863 475.049 4355.32 475.591 4355.32 476.194 L 4355.32 516.084 Z  M 4434.104 501.08 C 4434.104 510.239 4441.756 517.831 4451.217 517.831 C 4460.736 517.831 4468.45 510.239 4468.45 501.08 L 4468.45 476.194 C 4468.45 475.591 4467.907 475.049 4467.305 475.049 L 4459.894 475.049 C 4459.23 475.049 4458.749 475.591 4458.749 476.194 L 4458.749 500.598 C 4458.749 504.816 4455.555 508.19 4451.217 508.19 C 4446.939 508.19 4443.805 504.816 4443.805 500.598 L 4443.805 476.194 C 4443.805 475.591 4443.322 475.049 4442.66 475.049 L 4435.249 475.049 C 4434.645 475.049 4434.104 475.591 4434.104 476.194 L 4434.104 501.08 Z  M 4511.019 516.084 C 4511.019 516.686 4511.5 517.228 4512.164 517.228 L 4527.108 517.228 C 4534.277 517.228 4540.243 512.348 4540.243 505.599 C 4540.243 500.055 4535.362 497.103 4532.168 495.777 C 4535.001 494.271 4539.159 490.896 4539.159 486.256 C 4539.159 479.929 4533.313 475.049 4526.203 475.049 L 4512.164 475.049 C 4511.5 475.049 4511.019 475.591 4511.019 476.194 L 4511.019 516.084 Z  M 4520.418 492.162 L 4520.418 483.726 L 4525.119 483.726 C 4527.408 483.726 4529.337 485.413 4529.337 487.823 C 4529.337 490.233 4527.408 492.162 4525.119 492.162 L 4520.418 492.162 Z  M 4520.418 508.612 L 4520.418 499.995 L 4525.299 499.995 C 4527.649 499.995 4530.241 501.803 4530.241 504.213 C 4530.241 506.684 4528.252 508.612 4525.903 508.612 L 4520.418 508.612 Z " fill="rgb(208,208,208)"/><path d=" M 4173.618 559.513 L 4173.618 557.341 L 4163.226 557.341 L 4163.226 550.589 L 4173.413 550.589 L 4173.413 548.417 L 4163.226 548.417 L 4163.226 542.105 L 4173.618 542.105 L 4173.618 539.933 L 4160.789 539.933 L 4160.789 559.513 L 4173.618 559.513 Z  M 4223.317 559.513 L 4215.714 549.444 L 4222.878 539.933 L 4219.912 539.933 L 4214.129 547.771 L 4208.317 539.933 L 4205.352 539.933 L 4212.544 549.474 L 4204.911 559.513 L 4207.876 559.513 L 4214.129 551.176 L 4220.382 559.513 L 4223.317 559.513 Z  M 4257.781 559.513 L 4257.781 551.734 L 4263.212 551.734 C 4267.087 551.734 4269.347 549.033 4269.347 545.834 C 4269.347 542.634 4267.146 539.933 4263.212 539.933 L 4255.345 539.933 L 4255.345 559.513 L 4257.781 559.513 Z  M 4262.918 549.562 L 4257.781 549.562 L 4257.781 542.105 L 4262.918 542.105 C 4265.238 542.105 4266.823 543.632 4266.823 545.834 C 4266.823 548.035 4265.238 549.562 4262.918 549.562 Z  M 4313.469 559.513 L 4313.469 557.341 L 4304.369 557.341 L 4304.369 539.933 L 4301.933 539.933 L 4301.933 559.513 L 4313.469 559.513 Z  M 4354.186 559.866 C 4359.969 559.866 4363.903 555.521 4363.903 549.738 C 4363.903 543.955 4359.969 539.61 4354.186 539.61 C 4348.373 539.61 4344.469 543.955 4344.469 549.738 C 4344.469 555.521 4348.373 559.866 4354.186 559.866 Z  M 4354.186 557.693 C 4349.783 557.693 4346.994 554.288 4346.994 549.738 C 4346.994 545.158 4349.783 541.783 4354.186 541.783 C 4358.56 541.783 4361.378 545.158 4361.378 549.738 C 4361.378 554.288 4358.56 557.693 4354.186 557.693 Z  M 4411.282 559.513 L 4405.999 551.529 C 4408.67 551.294 4411.077 549.356 4411.077 545.834 C 4411.077 542.223 4408.523 539.933 4404.942 539.933 L 4397.075 539.933 L 4397.075 559.513 L 4399.511 559.513 L 4399.511 551.734 L 4403.416 551.734 L 4408.406 559.513 L 4411.282 559.513 Z  M 4404.648 549.591 L 4399.511 549.591 L 4399.511 542.105 L 4404.648 542.105 C 4406.968 542.105 4408.553 543.632 4408.553 545.834 C 4408.553 548.035 4406.968 549.591 4404.648 549.591 Z  M 4457.107 559.513 L 4457.107 557.341 L 4446.716 557.341 L 4446.716 550.589 L 4456.901 550.589 L 4456.901 548.417 L 4446.716 548.417 L 4446.716 542.105 L 4457.107 542.105 L 4457.107 539.933 L 4444.279 539.933 L 4444.279 559.513 L 4457.107 559.513 Z  M 4504.546 559.513 L 4499.263 551.529 C 4501.934 551.294 4504.341 549.356 4504.341 545.834 C 4504.341 542.223 4501.787 539.933 4498.206 539.933 L 4490.339 539.933 L 4490.339 559.513 L 4492.774 559.513 L 4492.774 551.734 L 4496.679 551.734 L 4501.67 559.513 L 4504.546 559.513 Z  M 4497.912 549.591 L 4492.774 549.591 L 4492.774 542.105 L 4497.912 542.105 C 4500.231 542.105 4501.817 543.632 4501.817 545.834 C 4501.817 548.035 4500.231 549.591 4497.912 549.591 Z  M 4538.628 559.807 C 4539.509 559.807 4540.243 559.073 4540.243 558.192 C 4540.243 557.312 4539.509 556.578 4538.628 556.578 C 4537.748 556.578 4537.013 557.312 4537.013 558.192 C 4537.013 559.073 4537.748 559.807 4538.628 559.807 Z " fill="rgb(208,208,208)"/><g><path d=" M 4538.636 563.608 C 4541.585 563.608 4544.045 561.15 4544.045 558.2 C 4544.045 555.25 4541.585 552.792 4538.636 552.792 C 4535.687 552.792 4533.226 555.25 4533.226 558.2 C 4533.226 561.15 4535.687 563.608 4538.636 563.608 Z " fill="rgb(208,208,208)"/><path d=" M 4538.603 548.837 L 4536.34 554.451 L 4540.932 554.451 L 4538.603 548.837 Z " fill="rgb(208,208,208)"/><path d=" M 4538.636 567.563 L 4540.899 561.949 L 4536.308 561.949 L 4538.636 567.563 Z " fill="rgb(208,208,208)"/><path d=" M 4548 558.168 L 4542.386 555.904 L 4542.386 560.496 L 4548 558.168 Z " fill="rgb(208,208,208)"/><path d=" M 4529.272 558.232 L 4534.885 560.496 L 4534.885 555.904 L 4529.272 558.232 Z " fill="rgb(208,208,208)"/></g></g></svg>