<?xml version="1.0" encoding="UTF-8" standalone="no"?><!-- Generator: Gravit.io --><svg xmlns="http://www.w3.org/2000/svg" xmlns:xlink="http://www.w3.org/1999/xlink" style="isolation:isolate" viewBox="0 0 365.428 114.333" width="365.428pt" height="114.333pt"><g><path d=" M 141.704 40.963 L 141.704 40.963 Q 142.493 40.963 142.986 41.489 L 142.986 41.489 L 142.986 41.489 Q 143.479 42.014 143.479 42.803 L 143.479 42.803 L 143.479 61.964 L 143.479 61.964 Q 143.479 62.819 142.904 63.394 L 142.904 63.394 L 142.904 63.394 Q 142.328 63.969 141.474 63.969 L 141.474 63.969 L 141.474 63.969 Q 141.014 63.969 140.57 63.821 L 140.57 63.821 L 140.57 63.821 Q 140.126 63.674 139.929 63.411 L 139.929 63.411 L 127.867 48.095 L 127.867 62.129 L 127.867 62.129 Q 127.867 62.918 127.358 63.443 L 127.358 63.443 L 127.358 63.443 Q 126.848 63.969 126.027 63.969 L 126.027 63.969 L 126.027 63.969 Q 125.238 63.969 124.745 63.443 L 124.745 63.443 L 124.745 63.443 Q 124.252 62.918 124.252 62.129 L 124.252 62.129 L 124.252 42.968 L 124.252 42.968 Q 124.252 42.113 124.827 41.538 L 124.827 41.538 L 124.827 41.538 Q 125.402 40.963 126.257 40.963 L 126.257 40.963 L 126.257 40.963 Q 126.75 40.963 127.226 41.16 L 127.226 41.16 L 127.226 41.16 Q 127.703 41.357 127.933 41.686 L 127.933 41.686 L 139.896 56.936 L 139.896 42.803 L 139.896 42.803 Q 139.896 42.014 140.406 41.489 L 140.406 41.489 L 140.406 41.489 Q 140.915 40.963 141.704 40.963 L 141.704 40.963 Z  M 202.442 52.466 L 202.442 52.466 Q 202.442 55.72 200.996 58.431 L 200.996 58.431 L 200.996 58.431 Q 199.549 61.143 197.002 62.72 L 197.002 62.72 L 197.002 62.72 Q 194.455 64.298 191.267 64.298 L 191.267 64.298 L 191.267 64.298 Q 188.079 64.298 185.532 62.72 L 185.532 62.72 L 185.532 62.72 Q 182.985 61.143 181.555 58.431 L 181.555 58.431 L 181.555 58.431 Q 180.125 55.72 180.125 52.466 L 180.125 52.466 L 180.125 52.466 Q 180.125 49.212 181.555 46.501 L 181.555 46.501 L 181.555 46.501 Q 182.985 43.789 185.532 42.212 L 185.532 42.212 L 185.532 42.212 Q 188.079 40.634 191.267 40.634 L 191.267 40.634 L 191.267 40.634 Q 194.455 40.634 197.002 42.212 L 197.002 42.212 L 197.002 42.212 Q 199.549 43.789 200.996 46.501 L 200.996 46.501 L 200.996 46.501 Q 202.442 49.212 202.442 52.466 L 202.442 52.466 Z  M 198.169 52.466 L 198.169 52.466 Q 198.169 50.264 197.282 48.473 L 197.282 48.473 L 197.282 48.473 Q 196.394 46.681 194.817 45.63 L 194.817 45.63 L 194.817 45.63 Q 193.239 44.578 191.267 44.578 L 191.267 44.578 L 191.267 44.578 Q 189.262 44.578 187.701 45.613 L 187.701 45.613 L 187.701 45.613 Q 186.14 46.649 185.269 48.456 L 185.269 48.456 L 185.269 48.456 Q 184.398 50.264 184.398 52.466 L 184.398 52.466 L 184.398 52.466 Q 184.398 54.668 185.269 56.476 L 185.269 56.476 L 185.269 56.476 Q 186.14 58.283 187.701 59.319 L 187.701 59.319 L 187.701 59.319 Q 189.262 60.354 191.267 60.354 L 191.267 60.354 L 191.267 60.354 Q 193.239 60.354 194.817 59.302 L 194.817 59.302 L 194.817 59.302 Q 196.394 58.251 197.282 56.459 L 197.282 56.459 L 197.282 56.459 Q 198.169 54.668 198.169 52.466 L 198.169 52.466 Z  M 255.521 40.897 L 255.521 40.897 Q 256.343 40.897 256.951 41.456 L 256.951 41.456 L 256.951 41.456 Q 257.559 42.014 257.559 42.803 L 257.559 42.803 L 257.559 42.803 Q 257.559 43.23 257.362 43.691 L 257.362 43.691 L 249.244 62.687 L 249.244 62.687 Q 248.948 63.312 248.422 63.641 L 248.422 63.641 L 248.422 63.641 Q 247.896 63.969 247.305 63.969 L 247.305 63.969 L 247.305 63.969 Q 246.746 63.936 246.269 63.624 L 246.269 63.624 L 246.269 63.624 Q 245.793 63.312 245.53 62.72 L 245.53 62.72 L 237.412 43.658 L 237.412 43.658 Q 237.248 43.329 237.248 42.836 L 237.248 42.836 L 237.248 42.836 Q 237.248 41.949 237.905 41.406 L 237.905 41.406 L 237.905 41.406 Q 238.562 40.864 239.252 40.864 L 239.252 40.864 L 239.252 40.864 Q 239.811 40.864 240.304 41.193 L 240.304 41.193 L 240.304 41.193 Q 240.797 41.521 241.06 42.146 L 241.06 42.146 L 247.666 57.692 L 253.714 42.146 L 253.714 42.146 Q 253.977 41.554 254.47 41.226 L 254.47 41.226 L 254.47 41.226 Q 254.963 40.897 255.521 40.897 L 255.521 40.897 Z  M 310.212 40.93 L 310.212 40.93 Q 311.066 40.93 311.592 41.489 L 311.592 41.489 L 311.592 41.489 Q 312.118 42.047 312.118 42.935 L 312.118 42.935 L 312.118 54.832 L 312.118 54.832 Q 312.118 57.56 310.968 59.664 L 310.968 59.664 L 310.968 59.664 Q 309.817 61.767 307.747 62.95 L 307.747 62.95 L 307.747 62.95 Q 305.676 64.134 303.014 64.134 L 303.014 64.134 L 303.014 64.134 Q 300.352 64.134 298.265 62.95 L 298.265 62.95 L 298.265 62.95 Q 296.178 61.767 295.027 59.664 L 295.027 59.664 L 295.027 59.664 Q 293.877 57.56 293.877 54.832 L 293.877 54.832 L 293.877 42.935 L 293.877 42.935 Q 293.877 42.08 294.468 41.505 L 294.468 41.505 L 294.468 41.505 Q 295.06 40.93 295.98 40.93 L 295.98 40.93 L 295.98 40.93 Q 296.769 40.93 297.361 41.505 L 297.361 41.505 L 297.361 41.505 Q 297.952 42.08 297.952 42.935 L 297.952 42.935 L 297.952 54.832 L 297.952 54.832 Q 297.952 56.41 298.643 57.642 L 298.643 57.642 L 298.643 57.642 Q 299.333 58.875 300.499 59.532 L 300.499 59.532 L 300.499 59.532 Q 301.666 60.19 303.014 60.19 L 303.014 60.19 L 303.014 60.19 Q 304.427 60.19 305.66 59.532 L 305.66 59.532 L 305.66 59.532 Q 306.892 58.875 307.632 57.642 L 307.632 57.642 L 307.632 57.642 Q 308.371 56.41 308.371 54.832 L 308.371 54.832 L 308.371 42.935 L 308.371 42.935 Q 308.371 42.047 308.864 41.489 L 308.864 41.489 L 308.864 41.489 Q 309.357 40.93 310.212 40.93 L 310.212 40.93 Z  M 356.981 64.298 L 356.981 64.298 Q 354.615 64.298 352.774 63.706 L 352.774 63.706 L 352.774 63.706 Q 350.933 63.115 349.323 61.702 L 349.323 61.702 L 349.323 61.702 Q 348.436 60.913 348.436 59.96 L 348.436 59.96 L 348.436 59.96 Q 348.436 59.204 348.994 58.628 L 348.994 58.628 L 348.994 58.628 Q 349.553 58.053 350.342 58.053 L 350.342 58.053 L 350.342 58.053 Q 350.966 58.053 351.459 58.448 L 351.459 58.448 L 351.459 58.448 Q 352.774 59.532 354.023 60.025 L 354.023 60.025 L 354.023 60.025 Q 355.272 60.518 356.981 60.518 L 356.981 60.518 L 356.981 60.518 Q 358.822 60.518 360.153 59.697 L 360.153 59.697 L 360.153 59.697 Q 361.484 58.875 361.484 57.659 L 361.484 57.659 L 361.484 57.659 Q 361.484 56.18 360.169 55.342 L 360.169 55.342 L 360.169 55.342 Q 358.854 54.504 355.995 54.076 L 355.995 54.076 L 355.995 54.076 Q 348.797 53.025 348.797 47.372 L 348.797 47.372 L 348.797 47.372 Q 348.797 45.301 349.882 43.773 L 349.882 43.773 L 349.882 43.773 Q 350.966 42.244 352.84 41.439 L 352.84 41.439 L 352.84 41.439 Q 354.713 40.634 357.014 40.634 L 357.014 40.634 L 357.014 40.634 Q 359.084 40.634 360.909 41.258 L 360.909 41.258 L 360.909 41.258 Q 362.733 41.883 363.949 42.902 L 363.949 42.902 L 363.949 42.902 Q 364.902 43.658 364.902 44.644 L 364.902 44.644 L 364.902 44.644 Q 364.902 45.4 364.343 45.975 L 364.343 45.975 L 364.343 45.975 Q 363.784 46.55 363.028 46.55 L 363.028 46.55 L 363.028 46.55 Q 362.535 46.55 362.141 46.254 L 362.141 46.254 L 362.141 46.254 Q 361.286 45.564 359.758 44.989 L 359.758 44.989 L 359.758 44.989 Q 358.23 44.414 357.014 44.414 L 357.014 44.414 L 357.014 44.414 Q 354.943 44.414 353.809 45.186 L 353.809 45.186 L 353.809 45.186 Q 352.675 45.958 352.675 47.207 L 352.675 47.207 L 352.675 47.207 Q 352.675 48.621 353.842 49.344 L 353.842 49.344 L 353.842 49.344 Q 355.009 50.067 357.507 50.527 L 357.507 50.527 L 357.507 50.527 Q 360.333 51.02 362.026 51.792 L 362.026 51.792 L 362.026 51.792 Q 363.719 52.565 364.573 53.896 L 364.573 53.896 L 364.573 53.896 Q 365.428 55.227 365.428 57.429 L 365.428 57.429 L 365.428 57.429 Q 365.428 59.499 364.261 61.061 L 364.261 61.061 L 364.261 61.061 Q 363.094 62.622 361.155 63.46 L 361.155 63.46 L 361.155 63.46 Q 359.216 64.298 356.981 64.298 L 356.981 64.298 Z " fill="rgb(66,75,84)"/><path d=" M 0 0 L 11.233 8.463 L 13.695 18.156 L 8.463 44.93 L 11.233 60.624 L 29.235 81.396 L 29.235 66.471 L 31.543 43.237 L 29.235 22.003 L 18.618 6.616 L 0 0 Z  M 31.543 70.933 L 31.543 82.935 L 35.082 99.861 L 36.467 98.937 L 32.928 82.935 L 31.543 70.933 Z  M 45.245 98.363 L 43.99 87.675 L 49.759 78.185 L 62.254 69.632 L 76.301 68.619 L 98.622 75.631 L 109.06 80.692 L 124.252 80.692 L 100.322 85.824 L 79.266 84.874 L 66.152 84.275 L 55.859 87.015 L 45.245 98.363 Z  M 124.252 80.692 L 109.06 93.175 L 90.167 102.26 L 74.319 104.561 L 62.254 103.33 L 54.772 101.484 L 47.239 99.878 L 47.94 96.964 L 55.229 89.342 L 65.883 85.824 L 100.322 87.015 L 124.252 80.692 Z  M 47.94 96.964 L 44.691 102.26 L 43.041 107.586 L 42.451 114.333 L 44.68 113.74 L 44.421 107.218 L 47.239 99.878 L 47.94 96.964 Z  M 0 0.923 L 13.695 0.923 L 18.618 7.54 L 0 0.923 Z  M 13.695 0.923 L 32.928 9.386 L 18.618 7.54 L 13.695 0.923 Z  M 18.618 7.54 L 26.004 16.158 L 32.928 9.386 L 18.618 7.54 Z  M 32.928 9.386 L 49.392 30.466 L 31.543 22.926 L 32.928 9.386 Z  M 32.928 9.386 L 26.004 16.158 L 31.543 22.926 L 32.928 9.386 Z  M 31.543 22.926 L 34.005 44.16 L 49.392 30.466 L 31.543 22.926 Z  M 49.392 30.466 L 54.162 47.778 L 34.005 44.16 L 49.392 30.466 Z  M 54.162 58.932 L 54.162 47.778 L 34.005 44.16 L 54.162 58.932 Z  M 54.162 58.932 L 48.7 69.702 L 34.005 44.16 L 54.162 58.932 Z  M 34.005 44.16 L 31.543 71.857 L 48.7 69.702 L 34.005 44.16 Z  M 48.7 69.632 L 36.467 80.2 L 31.543 71.589 L 48.7 69.632 Z  M 31.543 71.589 L 32.467 81.396 L 36.467 80.2 L 31.543 71.589 Z " fill-rule="evenodd" fill="rgb(105,193,22)"/></g></svg>