<?xml version="1.0" encoding="UTF-8" standalone="no"?><!-- Generator: Gravit.io --><svg xmlns="http://www.w3.org/2000/svg" xmlns:xlink="http://www.w3.org/1999/xlink" style="isolation:isolate" viewBox="828.875 504.5 42 42"><g><path d=" M 849.963 505.5 L 829.875 525.412 L 849.963 545.5 L 869.875 525.412 L 849.963 505.5 Z " fill="none" vector-effect="non-scaling-stroke" stroke-width="2" stroke="param(outline) rgb(0,0,0)" stroke-linejoin="round" stroke-linecap="square" stroke-miterlimit="3"/><path d=" M 850.968 529.92 C 850.968 530.18 850.858 530.44 850.668 530.63 C 850.478 530.81 850.228 530.92 849.968 530.92 C 849.698 530.92 849.448 530.81 849.258 530.63 C 849.068 530.44 848.968 530.18 848.968 529.92 L 848.968 515.67 C 848.968 515.4 849.068 515.15 849.258 514.96 C 849.448 514.77 849.698 514.67 849.968 514.67 C 850.228 514.67 850.478 514.77 850.668 514.96 C 850.858 515.15 850.968 515.4 850.968 515.67 L 850.968 529.92 Z  M 848.739 534.107 C 848.739 533.431 849.288 532.883 849.963 532.883 C 850.639 532.883 851.188 533.431 851.188 534.107 C 851.188 534.782 850.639 535.331 849.963 535.331 C 849.288 535.331 848.739 534.782 848.739 534.107 Z " fill-rule="evenodd" fill="param(fill) rgb(0,0,0)"/></g></svg>
