<svg id="Capa_1" enable-background="new 0 0 498.151 498.151" viewBox="0 0 498.151 498.151" xmlns="http://www.w3.org/2000/svg"><g><path d="m253.094 487.614 32.096 6.196c5.064.977 10.31.076 14.756-2.537l27.425-16.112c2.247-1.32 4.719-2.215 7.29-2.639l31.171-5.138c5.061-.834 9.647-3.475 12.91-7.433l21.054-25.541c1.75-2.123 3.897-3.886 6.321-5.188l26.96-14.491c4.57-2.456 8.081-6.503 9.867-11.375l11.497-31.356c.854-2.329 2.11-4.49 3.712-6.385l20.865-24.691c3.233-3.826 5.007-8.674 5.007-13.683v-32.733c0-2.536.455-5.052 1.344-7.428l11.439-30.577c1.792-4.79 1.792-10.066 0-14.855l-11.439-30.577c-.889-2.376-1.344-4.891-1.344-7.428v-32.733c0-5.009-1.774-9.857-5.007-13.683l-20.865-24.691c-1.601-1.895-2.858-4.056-3.712-6.385l-11.498-31.357c-1.786-4.871-5.297-8.918-9.867-11.375l-26.96-14.491c-2.424-1.303-4.571-3.065-6.321-5.188l-21.053-25.54c-3.262-3.958-7.849-6.598-12.91-7.433l-31.171-5.138c-2.572-.424-5.043-1.318-7.29-2.639l-27.425-16.112c-4.446-2.612-9.693-3.514-14.756-2.537l-32.096 6.196c-2.654.512-5.382.512-8.036 0l-32.096-6.196c-5.064-.977-10.31-.076-14.756 2.537l-27.425 16.112c-2.247 1.32-4.719 2.215-7.291 2.639l-31.171 5.138c-5.061.834-9.647 3.475-12.91 7.433l-21.053 25.541c-1.75 2.123-3.897 3.886-6.321 5.188l-26.96 14.491c-4.57 2.456-8.081 6.503-9.867 11.375l-11.498 31.357c-.854 2.329-2.11 4.49-3.712 6.385l-20.865 24.691c-3.233 3.826-5.007 8.674-5.007 13.683v32.733c0 2.536-.455 5.052-1.344 7.428l-11.438 30.576c-1.792 4.79-1.792 10.066 0 14.855l11.439 30.577c.889 2.376 1.344 4.891 1.344 7.428v32.733c0 5.009 1.774 9.857 5.007 13.683l20.865 24.691c1.601 1.895 2.858 4.056 3.712 6.385l11.498 31.357c1.786 4.871 5.297 8.918 9.867 11.375l26.96 14.491c2.424 1.303 4.571 3.065 6.321 5.188l21.054 25.541c3.262 3.958 7.849 6.598 12.91 7.433l31.171 5.138c2.572.424 5.043 1.318 7.291 2.639l27.425 16.112c4.446 2.612 9.693 3.514 14.756 2.537l32.096-6.196c2.652-.513 5.379-.513 8.034-.001z" fill="#fee97d"/><g><circle cx="249.576" cy="249.076" fill="#feca9c" r="203.418"/><path d="m161.11 249.076c0-92.382 61.609-170.376 145.962-195.178-18.228-5.36-37.534-8.24-57.497-8.24-112.345 0-203.418 91.073-203.418 203.418s91.073 203.418 203.418 203.418c19.963 0 39.279-2.883 57.507-8.242-84.353-24.803-145.972-102.795-145.972-195.176z" fill="#fdb97e"/><circle cx="249.576" cy="249.076" fill="#fea95c" r="173.418"/><path d="m257.859 75.86c-2.746-.13-5.506-.202-8.284-.202-95.623 0-173.418 77.795-173.418 173.418s77.795 173.418 173.418 173.418c2.777 0 5.538-.072 8.284-.202-58.052-35.821-96.749-99.993-96.749-173.216s38.697-137.396 96.749-173.216z" fill="#fe9738"/><ellipse cx="217.646" cy="149.566" fill="#fe860a" rx="32.457" ry="28.4"/><ellipse cx="173.583" cy="226.255" fill="#fe860a" rx="19.962" ry="17.466"/><ellipse cx="298.091" cy="356.69" fill="#fe9738" rx="30.22" ry="26.443"/></g></g></svg>
