<?xml version="1.0" encoding="UTF-8" standalone="no"?><!-- Generator: Gravit.io --><svg xmlns="http://www.w3.org/2000/svg" xmlns:xlink="http://www.w3.org/1999/xlink" style="isolation:isolate" viewBox="831.313 502.75 46.625 46.625"><path d=" M 831.813 526.063 C 831.813 513.472 842.034 503.25 854.625 503.25 C 867.216 503.25 877.438 513.472 877.438 526.063 C 877.438 538.653 867.216 548.875 854.625 548.875 C 842.034 548.875 831.813 538.653 831.813 526.063 Z  M 861.438 514.75 Q 855.125 510.625 848.125 514.313 Q 842.5 517.688 842.688 524.375 M 864.5 517.625 Q 867.063 520.25 866.813 526.813 M 866.688 531 L 866.688 534.438 M 850.625 527.938 L 850.625 523.5 Q 850.625 520 854.625 520.25 Q 858.75 520.188 858.625 525.063 L 858.625 535.563 L 858.625 539 M 854.625 525.063 L 854.625 537.281 L 854.625 540.719 M 850.625 532.188 L 850.625 539 M 862.688 529.063 L 862.688 523.5 C 862.688 520.636 860.938 518.875 858.953 517.571 Q 857.2 516.805 854.625 516.625 C 851.242 516.625 848.439 517.845 847.063 521.25 Q 846.533 522.56 846.625 524.688 L 846.625 530.063 L 846.625 536.875 M 862.688 532.719 L 862.688 536.156 M 842.688 527.938 L 842.688 529.438 M 842.688 533.563 L 842.688 535" fill-rule="evenodd" fill="none" vector-effect="non-scaling-stroke" stroke-width="1" stroke="param(fill) rgb(0,0,0)" stroke-linejoin="miter" stroke-linecap="square" stroke-miterlimit="3"/></svg>
